<?xml version="1.0" standalone="no"?>
<!DOCTYPE svg PUBLIC "-//W3C//DTD SVG 1.1//EN" "http://www.w3.org/Graphics/SVG/1.1/DTD/svg11.dtd" >
<svg xmlns="http://www.w3.org/2000/svg">
<metadata></metadata>
<defs>
<font id="pwlefthandmedium" horiz-adv-x="761" >
<font-face units-per-em="2048" ascent="1638" descent="-410" />
<missing-glyph horiz-adv-x="614" />
<glyph horiz-adv-x="0" />
<glyph unicode="&#xd;" horiz-adv-x="681" />
<glyph unicode=" "  horiz-adv-x="614" />
<glyph unicode="&#x09;" horiz-adv-x="614" />
<glyph unicode="&#xa0;" horiz-adv-x="614" />
<glyph unicode="!" horiz-adv-x="526" d="M201 436q-27 129 2 332q4 29 16 100.5t18.5 121.5t8.5 97q2 57 0 177q0 121 2 182q0 10 9 18.5t20.5 8.5t19.5 -9.5t8 -21.5q-2 -59 -2 -176q2 -121 0 -183q-2 -47 -8 -99t-18.5 -125t-16.5 -99q-29 -193 -2 -311q2 -12 -4 -21.5t-18.5 -12.5t-21.5 3t-13 18zM215 121 q-20 20 0.5 40.5t40.5 0.5l29 -29q20 -20 -0.5 -40.5t-40.5 -0.5z" />
<glyph unicode="&#x22;" horiz-adv-x="819" d="M113 1122q104 170 104 437q0 29 28.5 29t28.5 -29q0 -283 -112 -465q-14 -25 -39 -10.5t-10 38.5zM397 1135q98 238 146 378q8 29 35.5 20t17.5 -36q-45 -147 -145 -383q-12 -27 -38 -15.5t-16 36.5z" />
<glyph unicode="#" horiz-adv-x="1081" d="M53 480.5q-2 11.5 6.5 20.5t20.5 11q109 12 264 6q12 104 27 203q10 61 32 170q-147 0 -231 -19q-12 -2 -21.5 4.5t-12.5 18.5t3 21.5t19 13.5q90 18 256 18l20 96q43 209 43 314q0 29 29 28.5t29 -28.5q0 -111 -45 -324l-19 -86q49 0 80 2q39 2 125 8q37 252 4 369 q-4 12 2 22.5t17.5 13.5t21.5 -3.5t12 -16.5q37 -127 0 -380q55 4 96 4q29 0 29 -29t-29 -29q-45 0 -104 -4q-12 -74 -35 -194l-30 -154l-9 -51q47 -2 88 -2q29 0 29 -29t-29 -29q-43 0 -94 3q-2 -12 -9 -82t-11 -97l-13 -77q-8 -53 -19 -93.5t-28 -76.5q-10 -27 -36.5 -17 t-16.5 37q14 39 27 76q10 39 18 86t11 74.5t10 89.5l8 82q-31 2 -94.5 5t-98.5 3q-20 -199 -30 -412q0 -10 -9.5 -18.5t-20.5 -8.5t-19.5 9.5t-8.5 21.5q10 211 31 410q-145 6 -254 -6q-10 -2 -19.5 6t-11.5 19.5zM401 516q35 0 100.5 -4t94.5 -4q4 31 8 57q6 37 28.5 151.5 t35.5 184.5q-74 -6 -111 -8q-39 -2 -96 -2q-25 -115 -33 -178q-14 -96 -27 -197z" />
<glyph unicode="$" horiz-adv-x="974" d="M88 147q-10 27 16.5 37.5t36.5 -16.5q59 -156 76 -184l37 110q70 209 80 244q41 147 72 328q-57 119 -95 217q-82 209 -69 327q6 78 51 121q49 45 137 45q43 0 84 -4l8 41q29 143 21 197q-2 12 5 21t19.5 11.5t21.5 -5t11 -19.5q8 -66 -22 -217l-9 -37q98 -18 170 -59 q25 -14 10.5 -39t-38.5 -11q-63 37 -152 52q-18 -78 -22 -117q-43 -352 -72 -514q45 -90 110.5 -209t65.5 -121q84 -160 84 -280q0 -66 -47 -123.5t-119 -94.5q-70 -37 -139.5 -44t-130.5 26q-25 14 -45 33l-8 -31q-8 -31 -23 -131q-12 -90 -31 -139q-10 -27 -36.5 -16.5 t-16.5 36.5q16 45 27 127q16 104 23 136t18 69q-14 20 -27.5 41.5t-26.5 50.5l-20 45q-6 16 -18.5 51t-16.5 45zM260 -74q27 -27 57 -47q39 -23 97.5 -16.5t119 38t97.5 77t37 88.5q0 106 -76 256q-6 8 -55 98l-88 162q-27 -139 -62 -260q-18 -70 -78 -246 q-41 -119 -49 -150zM299 1206q-10 -104 66 -303q26 -69 57 -137q23 135 57 432q4 39 23 117q-35 4 -72 4q-66 0 -98 -31q-29 -27 -33 -82z" />
<glyph unicode="%" horiz-adv-x="1568" d="M84 927.5q2 55.5 27 108.5q29 63 82 107q53 45 120 51q14 8 27 2q27 -2 55 -10q10 -2 16.5 -12.5t2.5 -22.5q-2 -8 -8 -14q37 -49 47 -124t-9 -134q-23 -96 -84 -140q-72 -53 -163 -4q-57 31 -86 84t-27 108.5zM146.5 885q15.5 -66 78.5 -101q57 -31 103 0q43 33 61 109 q18 70 1 141.5t-64 102.5q-53 -2 -96.5 -36t-67.5 -87q-31 -63 -15.5 -129zM313 -29q18 20 33 64q18 61 31 82q45 82 160 205q127 131 163 188q53 78 127 219q90 174 121 227q27 45 70 105l78 102q88 123 104 211q2 10 12.5 17.5t21.5 5.5t18 -12.5t5 -22.5 q-18 -98 -114 -232l-78 -104q-47 -63 -68 -98q-27 -47 -118 -226q-76 -145 -129 -225q-41 -59 -172 -196q-113 -117 -152 -193q-8 -14 -27 -72q-16 -53 -41 -82q-18 -23 -40.5 -4t-4.5 41zM1032 238q8 43 55 92q27 27 74 65q17 12 33 2q76 6 117 -43q37 -41 39 -114 q0 -61 -27 -124t-72 -89q-51 -31 -100 -15q-41 12 -74 56q-27 35 -39 83t-6 87zM1090 225q-6 -25 4 -60.5t30.5 -63t42.5 -35.5q27 -6 55.5 10t49 64t19.5 99.5t-23 77.5q-25 29 -74 23h-8q-35 -27 -56 -49q-37 -37 -40 -66z" />
<glyph unicode="&#x26;" horiz-adv-x="1138" d="M-4 55q-70 113 20 320q53 119 222 379q102 160 139 221l-31 76q-14 35 -43 86l-49 92q-59 117 -70 198q-4 31 15 52q14 18 41 26q41 12 104 2q59 -8 111 -30q57 -27 77 -60q68 -109 -24 -315q-27 -59 -68 -131l70 -185q66 -176 121 -280l18 -37l13 14q94 135 114 201 q8 27 35 18.5t18 -34.5q-20 -74 -120 -217l-29 -37l90 -140q111 -166 143 -235q14 -25 -11.5 -38.5t-37.5 13.5q-41 74 -141 230q-53 78 -80 121q-80 -102 -162 -185q-145 -143 -260 -186q-68 -27 -123 -12q-63 14 -102 73zM45 88q27 -43 66 -51t90 12q102 39 239 172 q88 88 172 197l-34 63q-53 109 -121 283l-54 143l-116 -184q-166 -256 -217 -371q-80 -180 -25 -264zM242 1436q8 -74 63 -181l49 -92q31 -55 45 -92l13 -33q27 47 45 88q80 178 26 263q-10 16 -53 34q-43 20 -94 28.5t-80 -1.5q-10 -2 -12 -6q-2 -2 -2 -8z" />
<glyph unicode="'" horiz-adv-x="530" d="M119 1120q16 61 67 168q49 109 68 162q8 29 35.5 20t17.5 -36q-16 -57 -69 -168q-47 -104 -66 -162q-8 -27 -34.5 -18.5t-18.5 34.5z" />
<glyph unicode="(" horiz-adv-x="661" d="M68.5 553.5q-17.5 234.5 35.5 460.5q23 80 86 221q70 156 91 213q8 27 35.5 17.5t17.5 -38.5q-20 -59 -92 -215q-59 -133 -80 -215q-53 -213 -36 -440t91 -434q25 -66 109 -180q88 -119 112 -191q10 -27 -16.5 -37t-36.5 17q-23 63 -106 176q-88 121 -115 194 q-78 217 -95.5 451.5z" />
<glyph unicode=")" horiz-adv-x="559" d="M68 -350q35 53 58.5 117.5t31.5 101.5t23.5 132t19.5 126q8 49 24.5 127t24.5 124t20.5 123t11.5 123t-3 124q-12 125 -97 356q-92 252 -112 364q-2 10 5 20.5t18 12.5t21.5 -5t12.5 -19q18 -106 111 -353q84 -231 98 -372q2 -80 3 -129.5t-11.5 -129t-20.5 -128.5 l-24 -123q-16 -78 -25 -123l-20 -123q-14 -98 -23.5 -138t-35 -111t-62.5 -130q-16 -23 -39.5 -7.5t-9.5 40.5z" />
<glyph unicode="*" horiz-adv-x="735" d="M47 968.5q-14 24.5 10 39.5q80 45 174 131q-84 14 -147 2q-10 -2 -20.5 5t-12.5 18.5t5.5 21.5t19.5 12q59 10 139 2l-80 84q-53 53 -74 66q-25 14 -10 38.5t39 10.5q27 -14 86 -74q39 -39 84 -90q4 180 35 272q8 29 35.5 20t17.5 -36q-6 -20 -10 -38.5t-7 -41t-5 -35 t-4.5 -41t-2.5 -35t-1 -42t-1 -37.5q82 82 125 149q16 23 40 7.5t10 -40.5q-51 -74 -142 -163q74 -20 146 -50q27 -10 16.5 -36.5t-37.5 -16.5q-55 23 -108 39l28 -39q49 -70 56 -98q2 -12 -5.5 -22.5t-18.5 -12.5t-21.5 5t-12.5 18q-2 18 -45 75q-16 25 -39 51 q-12 -123 -51 -280q-4 -12 -14.5 -18.5t-21.5 -3.5t-17 13.5t-4 20.5q37 145 51 260q-92 -78 -166 -121q-25 -14 -39 10.5z" />
<glyph unicode="+" horiz-adv-x="1116" d="M149.5 436.5q0.5 28.5 28.5 28.5q133 0 277 12v68v69q2 199 20 320q2 12 11.5 19.5t21.5 5t19 -11.5t5 -21q-18 -117 -20 -312v-65v-68q172 16 350 47q10 2 20.5 -5t12.5 -18t-5 -21.5t-20 -12.5q-184 -31 -358 -47q0 -72 -4 -127q-2 -27 0 -72q4 -74 4 -80 q4 -100 -25 -159q-14 -27 -39.5 -13.5t-13.5 37.5q25 47 21 135q0 4 -4 78q-2 47 0 78q4 51 4 117q-143 -10 -277 -10q-29 0 -28.5 28.5z" />
<glyph unicode="," horiz-adv-x="454" d="M57 -211q25 45 62 125l59 131q14 27 39.5 13.5t13.5 -38.5q-16 -31 -61 -129q-41 -90 -64 -131q-14 -25 -38.5 -10.5t-10.5 39.5z" />
<glyph unicode="-" d="M24.5 551q0.5 29 28.5 29q238 0 465 -52q12 -4 18.5 -13t3.5 -21.5t-12.5 -18.5t-21.5 -4q-223 51 -453 51q-29 0 -28.5 29z" />
<glyph unicode="." horiz-adv-x="337" d="M59 49q0 29 29 29t29 -29t-29 -29t-29 29z" />
<glyph unicode="/" horiz-adv-x="780" d="M37 -8q16 45 26 139q12 111 23 156q27 90 84 233q72 172 90 228q33 94 113 351t131 394q10 27 36.5 16.5t16.5 -36.5q-51 -137 -131 -394q-76 -242 -113 -352q-20 -57 -90 -229q-57 -139 -80 -228q-12 -37 -22 -145q-10 -100 -31 -154q-10 -27 -36.5 -16.5t-16.5 37.5z " />
<glyph unicode="0" horiz-adv-x="833" d="M-23 567q-10 197 7 410q18 238 63 395q55 193 143 230q111 45 211 -99q59 -86 99 -207q29 -90 63 -288q35 -199 47 -394q12 -240 -20 -387q-33 -145 -111 -192q-45 -33 -119 -15q-61 16 -139 70q-66 45 -123 104.5t-78 100.5q-33 72 -43 272zM35 569q10 -188 39 -250 q14 -33 66.5 -86t113.5 -96q68 -47 121 -61q21 -4 35 -4q4 0 8 2q14 2 28 10q2 0 3 2q4 4 12 6q49 39 74 148q31 139 18 372q-12 188 -46 385t-61 283q-37 111 -92 190q-74 106 -143 78q-61 -25 -109 -190q-43 -154 -61 -385q-16 -211 -6 -404z" />
<glyph unicode="1" horiz-adv-x="546" d="M-29 729q76 80 131 262q14 45 41 156q27 98 43 145q10 37 35 92q12 35 23 56q6 12 10 18t8 10q14 12 31 7q14 -4 22 -21q2 -6 4 -16q2 -14 5 -39q2 -41 2 -109q0 -102 -4 -190q-18 -393 -115 -1067q-2 -12 -11.5 -19.5t-21.5 -5.5t-19.5 11.5t-4.5 21.5q96 668 114 1063 q4 86 4 186v60l-28 -74q-14 -47 -41 -143l-41 -158q-59 -195 -146 -287q-18 -20 -39.5 -1t-1.5 42z" />
<glyph unicode="2" horiz-adv-x="1007" d="M59 4q2 10 9 27q12 23 36 63q43 68 115 160q174 231 275 408q164 289 139 430q-12 76 -60.5 184t-109.5 182q-70 86 -133 92q-72 8 -142 -88q-78 -113 -43 -286q2 -12 -5 -22.5t-18 -12.5t-21.5 5t-12.5 17q-39 199 55 332q86 125 193 113q86 -10 172 -113 q66 -80 117 -195.5t65 -199.5q27 -160 -147 -465q-102 -182 -279 -414q-68 -92 -110 -158q-23 -37 -33 -57q14 -4 39 -6q43 -4 116 -4q39 0 121 2h84q6 0 93.5 -6t90.5 -4t91 4q10 2 19 -6.5t11 -19.5t-6 -20t-20 -12q-33 -4 -73 -4t-67.5 1t-74.5 5.5t-68 4.5h-78 q-84 -2 -123 -2q-76 0 -120 4q-29 2 -50 6q-25 6 -36 16q-16 14 -11 39z" />
<glyph unicode="3" horiz-adv-x="1024" d="M131 1563q10 49 68 57q37 6 94 -8q86 -20 160 -60q164 -86 267 -246.5t79 -338.5q-16 -115 -110.5 -188.5t-215.5 -100.5q94 -63 176 -189q121 -184 72 -296q-37 -80 -195 -156q-158 -74 -245 -55q-25 6 -54 36q-6 8 -17 21.5t-13 15.5q-29 35 -37 47q-14 27 -15 66 q0 29 29 29t29 -29q0 -25 8 -37q4 -8 31 -39q2 -2 14 -16q8 -12 14 -19q16 -18 23 -18q68 -14 208 51.5t167 126.5q37 82 -66 240q-45 70 -99 123t-95 69q-18 8 -33 9t-45.5 0t-42.5 -1h-4h-2q-6 0 -9 2q-6 2 -10 7q-10 8 -8 24q0 10 10 19q2 2 6 4l6 2h5q6 0 20 2 q43 4 51 4t26.5 2t27.5 2q29 4 49 8q111 23 191.5 85.5t94.5 156.5q23 156 -70 301t-247 227q-66 35 -143 53q-47 10 -74 9q-16 -4 -18.5 -14.5t-12.5 -17.5t-21.5 -5t-18.5 12.5t-5 22.5z" />
<glyph unicode="4" horiz-adv-x="878" d="M10 434q-6 16 0 41q4 31 29 84q16 33 70 129l90 160l104 184q27 51 80 157.5t86 191.5t57 171q2 10 12.5 16.5t21.5 3.5t17.5 -13.5t2.5 -22.5q-23 -88 -57 -175t-89 -196l-82 -161l-104 -185l-90 -160q-51 -92 -66 -124q-23 -45 -26 -70v-4l22 6q49 10 51 10 q207 37 355 47q47 240 106 498q4 12 14.5 18.5t21.5 3t17 -13.5t4 -20q-59 -252 -106 -484q16 -6 18 -24q0 -12 -7 -21.5t-19 -9.5h-2l-33 -180q-10 -59 -19 -166q-10 -141 -14 -170q-2 -12 -11 -19.5t-21.5 -5.5t-19.5 11.5t-5 21.5q8 49 14 166q8 109 19 170l30 168 q-139 -12 -334 -47q-2 0 -8 -1t-18 -5l-21 -4q-18 -4 -28 -7q-6 0 -11 -2h-6h-8q-29 4 -37 33z" />
<glyph unicode="5" horiz-adv-x="978" d="M104.5 262q18.5 23 40.5 4q12 -12 80 -94q43 -53 72 -59q90 -23 229 96q59 51 104.5 110.5t59.5 102.5q33 109 -22 270q-76 221 -211 240q-59 8 -172 -4q-61 -6 -68 -8h-27l-12 4q-14 4 -20 16q-2 8 -2 18v13l6 30q6 41 6 46q0 47 -4 138t-4 138q0 4 -1 22.5t-2 50 t-3 54.5q-2 51 -2 80v29q0 6 2 10v6q2 8 8 14q10 10 26 13q10 0 23 -3q20 -2 53 -10q47 -14 137 -51q119 -47 228 -98q27 -12 14.5 -39t-39.5 -15q-131 59 -223 99q-84 33 -133 49q-25 6 -39 8v-12q0 -27 2 -78q2 -23 3 -54.5t2 -51t1 -23.5q0 -47 4 -138t4 -138 q0 -8 -8 -56l-2 -14q6 2 64 8q117 12 186 4q170 -23 256 -276q61 -182 22 -307q-16 -53 -65 -119q-47 -63 -115 -121q-164 -139 -278 -111q-49 12 -105 80q-63 80 -71 86q-23 18 -4.5 41z" />
<glyph unicode="6" horiz-adv-x="849" d="M41 583.5q-2 239.5 53 475.5q61 260 176 414q137 182 330 182q29 0 29 -29t-29 -29q-162 0 -283 -159q-109 -145 -167 -394q-25 -106 -39 -221q4 6 10 13q113 74 239 -72q102 -119 162 -313q61 -205 19 -322q-25 -74 -86 -98q-63 -25 -158 8q-59 20 -119.5 65.5 t-81.5 100.5q-53 139 -55 378.5zM102 475q11 -156 48 -250q16 -41 65 -77.5t102 -55.5q72 -25 117 -8q37 16 53 63q35 100 -20 287q-55 184 -150 293q-94 106 -163 59q-25 -14 -41 9q-2 6 -4 10q-18 -174 -7 -330z" />
<glyph unicode="7" horiz-adv-x="841" d="M13 1604.5q3 11.5 13.5 17.5t20.5 4q143 -37 365 -51q6 0 18 1t32.5 3t35.5 2q33 2 53 2q35 -4 51 -16q16 -14 19 -47q2 -20 -5 -52q-8 -49 -32 -129q-18 -59 -76 -215l-111 -313q-72 -213 -112 -322q-12 -35 -52 -114l-65 -142q-82 -176 -82 -235q0 -29 -28.5 -29 t-28.5 29q0 72 86 260l67 141q37 78 49 111q43 113 113 321l111 314q59 162 73 211q25 76 33 123q4 25 2 39v6q-6 0 -16 2q-14 0 -45 -2q-92 -6 -94 -6q-225 14 -373 51q-12 4 -18.5 14t-3.5 21.5z" />
<glyph unicode="8" horiz-adv-x="739" d="M12 256q0 168 60.5 296t179.5 271q-20 37 -37 70q-14 31 -25.5 66.5t-21.5 88t-14 66.5q-47 199 -56 254q-12 92 -4 150q10 82 60 108q94 49 208 -39q45 -33 79 -78t46 -86q53 -174 17 -338q-39 -162 -162 -292q-2 0 -4 -2l35 -56q61 -104 86 -164q37 -80 31.5 -183 t-62.5 -230q-68 -147 -135 -203q-33 -25 -82 -4q-33 14 -74 47q-72 61 -102 115q-23 39 -23 143zM70 256q0 -90 14 -115q27 -43 90 -98q35 -29 59 -39q18 -8 23 -4q57 45 119 182q53 119 59 211q4 92 -28 158q-23 55 -82 156l-41 63q-106 -131 -159.5 -246.5t-53.5 -267.5z M150 1511q-6 -51 6 -135q6 -53 55 -250l14 -67q10 -49 18.5 -81t24.5 -60l25 -48l35 43q18 20 39 5q150 227 67 489q-10 31 -38.5 68.5t-67.5 66.5q-86 66 -146 35q-25 -14 -32 -66z" />
<glyph unicode="9" horiz-adv-x="727" d="M-22.5 1243q26.5 172 137.5 287l12 10l12 12l13 15q10 10 15 13t17.5 11t18.5 9.5t20.5 7.5t22.5 3t22 -1q63 -10 111 -82q35 -55 63 -146q33 -111 52 -272q27 -231 2 -485q2 -4 4 -11q6 -35 -6 -61q-4 -6 -9 -10q-8 -74 -22 -142q-104 -481 -414 -524q-12 -2 -21.5 5 t-11.5 19.5t5.5 21.5t19.5 11q266 37 365 480q10 49 18 94q-37 -4 -90 6q-59 14 -119 45q-63 33 -86 66q-90 121 -134 283.5t-17.5 334.5zM35 1233q-25 -156 15 -308.5t124 -267.5q16 -20 67.5 -46.5t106.5 -39t82 -2.5h2q35 274 4 533q-18 160 -49 264q-25 82 -57 129 q-33 51 -70 57q-18 4 -36.5 -5t-30 -19t-37.5 -39q-96 -100 -121 -256z" />
<glyph unicode=":" horiz-adv-x="454" d="M150 803l10 28q6 18 8 23q6 18 2 35q-4 12 2 22.5t17.5 13.5t21.5 -3.5t12 -16.5q10 -33 0 -67l-8 -25q-6 -16 -8 -27q-4 -10 -14.5 -16t-21.5 -3t-17 13.5t-4 22.5zM168 113v20v8v4q0 4 2 9q10 18 31 16q6 -2 11 -5t7 -5l2 -2q0 -2 2 -6q0 -2 2 -5q0 -2 2 -6l4 -20 q4 -12 -2 -22.5t-16 -12.5q-6 -2 -12 -2h-4q-29 0 -29 29z" />
<glyph unicode=";" horiz-adv-x="526" d="M60.5 -265q-19.5 21 2.5 40q18 18 78 63q43 35 64 56q55 59 41 145q-2 12 5 21.5t19.5 11.5t21.5 -5.5t11 -19.5q18 -113 -57 -192q-23 -25 -70 -62q-57 -43 -76 -59q-20 -20 -39.5 1zM168 897q-2 10 4 20.5t18 14.5q23 3 33 -17l4 5l4 12q8 16 13 20q2 4 4 6.5t6 4.5 q20 14 37 -7q4 -4 6 -9t2 -7l-2 -4v-4q0 -2 -2 -4q-6 -16 -19 -37l-14 -33q-12 -27 -39 -14l-4 4q-18 -2 -31.5 10t-19.5 39z" />
<glyph unicode="&#x3c;" horiz-adv-x="1132" d="M25 403l12 17h2v2h2l6 4l23 10l86 45l266 133q422 211 450 224q25 10 36.5 -16t-15.5 -38q-47 -20 -447 -221l-264 -133l-86 -43l-4 -2q18 -12 49 -29q29 -14 62 -30q39 -16 39 -19l604 -311q25 -12 11.5 -38t-40.5 -11l-600 311q-2 0 -7 2t-14.5 6t-15.5 8 q-37 16 -65 31q-41 20 -62 37q-14 12 -22 23q-14 20 -6 38z" />
<glyph unicode="=" horiz-adv-x="1273" d="M153.5 794.5q0.5 28.5 28.5 28.5q111 0 424 -18q279 -16 418 -17q29 0 29 -28.5t-29 -28.5q-106 0 -422 19q-281 16 -420 16q-29 0 -28.5 28.5zM177 322.5q18 23.5 40 5.5q31 -23 133 -37q94 -14 223 -19q281 -8 381 21q27 8 35.5 -18.5t-18.5 -34.5q-109 -33 -398 -25 q-135 4 -233 18q-115 18 -156 50q-25 16 -7 39.5z" />
<glyph unicode="&#x3e;" horiz-adv-x="1116" d="M30.5 978.5q12.5 26.5 39.5 14.5q41 -20 98 -63q76 -55 88 -64q127 -82 418 -215q2 -2 123 -53l57 -25l20 -10q4 -4 7.5 -6t7.5 -6q6 -8 6 -19q0 -16 -12 -32q-10 -12 -25 -27q-27 -25 -80 -65q-84 -63 -239 -170l-107 -70l-104 -72l-88 -59l-76 -53q-29 -20 -43 -33 q-20 -20 -40 1t3 40q18 18 68 53l94 66l131 88l129 88q160 106 237 166q49 39 74 61l8 8q-16 8 -51 23q-121 51 -125 53q-293 135 -426 219q-18 12 -90 68q-53 39 -88 55q-27 12 -14.5 38.5z" />
<glyph unicode="?" horiz-adv-x="862" d="M47 1327q-14 127 68 203q72 68 186 72q111 4 207 -56.5t119 -175.5q14 -94 15 -190.5t-33 -196.5t-99 -168q-20 -20 -119 -104q-84 -72 -127 -117q-131 -141 -88 -262q10 -27 -16.5 -37t-36.5 16q-55 154 100 322q43 47 131 121q90 76 115 102q55 57 85 146.5t30 177.5 t-15 178q-16 90 -94 140t-172 46q-94 -2 -149 -55q-61 -57 -50 -154q2 -12 -6 -21t-19 -11.5t-20.5 6t-11.5 18.5zM104.5 28.5q8.5 26.5 34.5 18.5q8 -2 15 -4q23 4 32 -18q6 -14 11 -23q2 -2 2 -6q2 -2 2 -4q2 -4 2 -8q0 -8 -6 -15q-8 -14 -27 -12l-16 6q-2 2 -2 4 q-2 0 -2 2q-2 2 -3 4h-2q-10 16 -22 21q-27 8 -18.5 34.5z" />
<glyph unicode="@" horiz-adv-x="1632" d="M133 388q-2 36 0 92.5t2 64.5q0 111 18.5 212t58.5 201.5t113.5 181.5t176.5 130q147 66 307 62.5t297 -72.5q145 -72 229 -203q84 -129 76 -299q-6 -150 -86 -246q-90 -109 -211 -176q-170 -96 -274 -14q-78 61 -97 182l-2 2l-26 -47q-53 -92 -99 -117q-39 -18 -84 23 q-27 27 -55 77q-51 94 -61 148q-2 8 -2 65v66q12 129 97 198.5t187 65.5q104 -6 158 -84q61 -84 18 -213q-4 -14 -16 -18q-8 -14 -27 -37l-32 -43q-6 -37 0 -78q16 -96 78 -145q74 -57 210 18q111 63 193 164q68 82 74 213q6 150 -69 265.5t-204 180.5q-127 63 -274.5 66.5 t-280.5 -57.5q-90 -43 -156.5 -116t-104.5 -165t-55 -188.5t-17 -202.5q0 -16 -2.5 -67.5t0 -84.5t10.5 -61q18 -78 72.5 -150.5t123.5 -126.5q217 -158 424 -149q59 2 125 16q66 12 164 37t158 37q12 2 22 -4t12.5 -18.5t-4 -22.5t-18.5 -12q-55 -10 -154.5 -36t-169 -39.5 t-133.5 -15.5q-227 -10 -458 162q-80 57 -138.5 138t-83.5 171q-8 33 -10 69zM471 655q0 -51 2 -57q6 -43 55 -127q25 -45 45 -65q10 -10 19 -11q31 14 74 90q66 115 75 127l4 4q10 53 41 93q10 12 23 20q10 6 20 8q16 80 -18 131q-39 55 -117 59.5t-145.5 -51t-77.5 -159.5 v-62z" />
<glyph unicode="A" horiz-adv-x="679" d="M-92 637q0 29 29 29q70 0 145 12v18q-2 59 -10.5 181t-11.5 183.5t-6 184.5q-1 34 -1 63q0 77 6 122q4 45 11 75q16 61 51 78q31 12 96 16q10 0 27.5 1.5t19.5 1.5q27 0 39 2h2l6 2l21 4q12 2 20 2q4 2 8 2h7q6 0 12 -2q23 -12 33 -45q9 -34 8 -88q0 -48 -6 -111 q-2 -23 -9.5 -93.5t-9.5 -98.5l-14 -205q-8 -139 -12 -209l43 18q27 10 38 -15.5t-14 -37.5l-69 -29q-4 -87 -4 -166q0 -390 94 -606q3 -8 3 -14q0 -16 -18 -24q-8 -3 -15 -3q-15 0 -24 17q-99 230 -99 637q0 67 3 139q-86 -31 -166 -47q0 -84 -12 -225q-18 -211 -18 -289 q0 -29 -29 -29t-29 29q0 84 19 293q10 131 12 211q-76 -12 -147 -13q-29 0 -29 29zM112 1245q3 -121 6 -181t10 -181t11 -183v-10q84 16 172 49q4 82 14.5 229.5t12.5 211.5q2 29 9 99.5t11 94.5q4 52 4 91q0 55 -8 85v4q-4 0 -12 -2l-20 -4h-7l-4 -2q-16 -2 -45 -2 q-2 0 -19.5 -1t-27.5 -1q-55 -2 -74 -12q-12 -4 -20 -39q-6 -25 -8 -66q-6 -43 -6 -119q0 -28 1 -61z" />
<glyph unicode="B" horiz-adv-x="890" d="M43 145q-8 212 -8 384.5t8 304.5q4 53 23 163q18 102 20 158q6 117 6 264q0 12 -8 45q-10 39 -8 60q8 78 114 94q31 6 63 5q37 0 75 -7q129 -27 233 -119q110 -94 110 -201q0 -17 -3 -34q-12 -72 -105 -215q-80 -125 -143 -191q-66 -68 -176 -100q-8 -4 -51 -6 q-14 0 -17 -5v-4q2 -2 21 -22q61 -70 94 -111t81 -109.5t75.5 -136t37.5 -137.5q4 -32 4 -60q0 -82 -40 -122q-72 -66 -185 -92q-45 -11 -86 -11q-33 0 -63 7q-2 -18 -9 -35q-2 -10 -12 -16q-6 -4 -14 -5q-4 -1 -8 1q-12 4 -17.5 14t-1.5 22q4 18 6 41q-20 14 -8 37q2 4 6 8 v17l-8 55q-6 37 -6 59zM100 150q0 -23 6 -56q6 -55 7 -57q2 -17 4 -31q28 -9 61.5 -9t73.5 9q98 23 156 78q24 23 24 79q0 24 -4 54q-8 63 -33.5 124.5t-70.5 125t-78 104.5t-94 111q-20 25 -25 33q-9 17 -9 32q0 18 13 35q18 23 57 25q37 2 39 2q96 29 152 88 q59 59 135 180q86 133 96 193q2 13 2 26q0 82 -88 158q-94 82 -209 105q-34 7 -68 7l-46 -3q-63 -10 -68 -43q-2 -12 6 -41q10 -41 11 -60q0 -147 -7 -268q-2 -57 -22 -164q-16 -106 -21 -158q-8 -131 -8 -301t8 -378z" />
<glyph unicode="C" horiz-adv-x="831" d="M-5 395v20q0 59 5 125q6 78 11 127.5t18 143.5l14 129q4 27 12 112t13.5 126t18.5 107.5t30 121.5q49 166 90 223q53 76 127 84q8 1 15 0q56 0 114 -37q55 -39 96 -102.5t51 -126.5v-5q0 -9 -5 -17q-7 -10 -19.5 -11.5t-21.5 6t-11 19.5q-8 51 -41 104q-35 53 -82 86 q-42 27 -80 27h-10q-49 -6 -88 -60q-35 -49 -82 -206q-14 -53 -26.5 -117t-17.5 -104t-13.5 -123.5t-12.5 -114.5q-4 -35 -16 -129t-16 -141l-11 -125q-4 -57 -4 -107v-33q0 -66 6 -129q10 -109 33 -153q29 -63 101 -70q6 -1 13 -1q47 0 79 40q10 10 22 41q18 39 27 53 l31 39q14 18 22 31.5t16.5 40t36 17.5t17 -37.5t-21.5 -48t-28.5 -41t-23.5 -34.5q-8 -10 -23 -45q-16 -37 -30 -53q-50 -60 -123 -60q-10 0 -19 1q-104 10 -149 102q-25 53 -37 174q-6 63 -7 131z" />
<glyph unicode="D" horiz-adv-x="659" d="M-176 -6q-8 10 -8 19q0 12 14 21q24 17 39 -7q35 -47 78 -70q-2 2 -2 4q-23 55 -29 124q-4 46 -4 83q0 18 1 34q3 48 12 127t12 113q6 80 23 274.5t24 301.5q2 84 2 118.5t-4.5 118.5t-4.5 121v25q0 20 1.5 54t1.5 56v17q-2 6 -3 14q2 23 3 31v4q0 2 2 6q0 4 4 6 q6 10 18 13q-35 6 -49 -9q-20 -20 -40.5 0.5t-0.5 40.5q28 28 73 28q25 0 56 -9q63 -20 143 -74q72 -49 131 -109q61 -63 76 -106q47 -131 47 -334q0 -132 -20 -295q-39 -315 -131 -618q-23 -80 -75 -139.5t-120 -81.5q-36 -14 -73 -14q-35 0 -69 12q-74 24 -128 100z M-30 198q-1 -14 -1 -29q1 -33 5 -75q6 -60 24 -112q11 -27 -16 -37q19 -5 39 -5q27 0 55 9q51 18 95 67.5t65 116.5q88 299 126 608q20 163 20 293q0 189 -42 309q-12 33 -64 87q-55 55 -122 102q-72 49 -127 65h-2q8 -6 10 -12q2 -4 2 -6v-4v-4q2 -10 0 -60q0 -23 -1 -56.5 t-1 -53.5v-25q0 -35 4 -120t4 -120.5t-2 -121.5q-6 -104 -23.5 -300t-23.5 -276q-2 -41 -11.5 -118.5t-12.5 -121.5z" />
<glyph unicode="E" horiz-adv-x="751" d="M-102 57q-3 7 -3 18t3 25q2 14 10 43q16 61 16 68q6 113 19.5 328t17.5 313h-16q-12 0 -19.5 9t-7.5 21.5t9.5 19.5t21.5 7q8 0 16 -2q12 217 19 389v39q0 31 -1 75t-3 77q0 74 2 115q2 27 4 43l4 16q4 12 10 18q8 8 25 13q10 2 22 2q23 0 57 -4q63 -6 158 -25 q82 -16 158 -35q76 -20 94 -28q18 -9 18 -24q0 -7 -4 -16q-14 -26 -39 -14q-14 8 -83 25q-74 18 -156 35q-92 18 -152 24q-31 4 -49 4h-6v-2q-2 -12 -4 -35q-2 -41 -2 -110q2 -33 3 -79t1 -75v-43q-6 -170 -18 -387q70 -2 172 -2q29 0 28.5 -28.5t-28.5 -28.5q-102 0 -177 2 q-4 -98 -17 -312t-19 -329q0 -12 -19 -78q-8 -27 -10 -39v-10q2 -2 4 -2q6 -2 14 -2q2 0 7.5 -1t7.5 -1q18 -2 57 -7.5t71.5 -10.5t61.5 -13q6 0 41 -16l23 -9l2 -2q2 2 4 3t6 1q0 2 2 3q6 4 12 6q27 10 37 -16.5t-16 -37.5q-2 0 -6 -2q-8 -6 -11 -6q-16 -8 -30 -8l-11 2h-4 q-2 2 -8 4l-22 10q-33 12 -35 15q-25 6 -54.5 10t-67.5 8t-61 8q-2 0 -7 1t-7 1q-12 2 -20 5q-35 8 -45 34zM43 1642h2h-2z" />
<glyph unicode="F" horiz-adv-x="724" d="M-92 706.5q0 12.5 9 19.5t22 7q31 -2 67 -2q16 559 17 567q6 94 6 158t-6 98l-3 7q-2 12 -4 20q-4 14 -4 25q-2 6 -2 12q2 12 8 20q19 20 50 20q8 0 16 -1q8 0 27 -4q12 -4 18 -4q64 -4 122 -4q124 0 218 20q3 1 6 1q9 0 15 -5q10 -7 13 -19q1 -4 1 -7q0 -8 -4 -14 q-6 -9 -19 -13q-101 -21 -232 -21q-59 0 -124 4q-10 0 -27.5 4t-21.5 4q-2 2 -6 3q2 -4 2 -9q2 -6 4 -18l2 -6q2 -4 2 -6q6 -37 6 -104t-6 -165q0 -8 -17 -565q8 0 27 1t29 1q115 0 184 -10q12 -2 19.5 -11.5t5.5 -21.5t-11.5 -19t-21.5 -5q-66 10 -176 10q-10 0 -29 -1 t-29 -1l-2 -70q-8 -254 -18 -403q-6 -92 -14 -144q-4 -29 -9 -47q-6 -23 -14 -33q-9 -15 -21 -15q-9 0 -19 8q-24 18 -5 40q4 12 4 15q4 16 8 40q6 49 13 140q10 145 18 401l2 70q-39 0 -70 2q-12 0 -19 9t-7 21.5z" />
<glyph unicode="G" horiz-adv-x="944" d="M-18 578v61q0 203 43 360q16 63 59 158q47 111 61 150q6 18 18.5 63t25 84t28.5 68q33 61 104.5 98t153.5 41h17q74 0 136 -32q68 -36 93 -113q3 -7 3 -13q0 -17 -20 -23q-28 -10 -36 19q-18 55 -70 82q-44 24 -103 24q-9 0 -18 -1q-68 -4 -127 -34t-84 -77 q-18 -35 -41 -113q-20 -80 -26 -94q-14 -41 -64 -151q-39 -90 -53 -148q-43 -154 -43 -350q0 -29 1 -57q7 -232 79 -398q23 -55 57.5 -78.5t93.5 -29.5l49 -8q35 -4 56 -5q21 -2 38 -2q32 0 52 7q49 16 71 88q15 46 15 101q0 29 -4 60q-10 92 -51 152q-39 57 -90 59l-11 -6 q-8 -4 -34.5 -19.5t-36.5 -21.5l-29 -20q-18 -12 -30.5 -26.5t-22.5 -31.5q-16 -23 -39.5 -7.5t-9.5 40.5q14 20 30.5 37.5t38 33t32.5 23t38.5 22.5t34.5 19q49 29 80.5 62t50.5 88q8 29 35.5 19.5t17.5 -36.5q-27 -82 -84 -133q43 -23 76 -69q49 -72 61 -176q4 -34 4 -64 q0 -68 -18 -125q-31 -98 -105 -123q-30 -11 -72 -11q-20 0 -44 3q-20 2 -55 6t-48 6q-76 8 -123 41t-77 101q-76 178 -84 420z" />
<glyph unicode="H" horiz-adv-x="718" d="M-99 822q-1 4 -1 8q0 7 4 14q6 10 16 12q10 4 19 6q-2 55 -7.5 159.5t-7.5 115.5q-5 129 -5 228q0 49 1 91q2 39 16.5 112.5t16.5 106.5q0 12 9 19.5t21.5 7.5t19.5 -9.5t7 -21.5q-2 -37 -18 -112q-12 -70 -15 -107q-1 -38 -1 -82q0 -99 6 -229q2 -18 7 -116.5t7 -150.5 q78 12 194 17q215 8 244 10q0 80 -2 154q-2 47 -18 139q-18 96 -21 147v6q0 49 29 148q18 64 18 105q0 12 -2 22q-2 12 5.5 21.5t19.5 11.5t21.5 -5.5t11.5 -19.5t2 -27q0 -49 -21 -124q-26 -87 -26 -130v-8q2 -45 18 -137q18 -96 20 -145q4 -35 4 -103q0 -34 -1 -75 q-3 -125 -3 -176.5t-8 -176.5t-11 -176t-12 -176t-14 -174q0 -12 -9 -19.5t-21.5 -7.5t-19.5 9.5t-7 21.5q2 33 14.5 199t16.5 231.5t10 187t6 220.5q-33 -4 -241 -10q-119 -4 -195 -19q1 -44 1 -82v-36v-36q0 -37 1 -79q2 -62 8 -113q2 -25 9.5 -49.5t18.5 -55t15 -51.5 q8 -23 12.5 -46t5.5 -53t1 -46v-49v-45q0 -29 -29 -29t-29 29v45v49q0 14 -1 41t-5 47l-8 41q-6 16 -16.5 48t-18.5 60.5t-12 55.5q-6 51 -8 115q-1 42 -1 79v36v36q0 36 -1 76h-4q-12 -4 -22.5 1.5t-13.5 17.5z" />
<glyph unicode="I" horiz-adv-x="342" d="M4 221q0 41 4 119t4 100q0 78 19 205q23 160 26 199q7 96 7 213q0 145 -11 321q0 16 -2 43t-2 41.5t-4 35t-8 38.5q-11 27 17 36q7 2 13 2q17 0 24 -20q9 -28 12 -53.5t5.5 -70t2.5 -48.5q11 -179 11 -326q0 -118 -7 -216q-4 -49 -27 -203q-18 -125 -18 -197 q0 -25 -4.5 -104.5t-4.5 -114.5q4 -129 52 -182q10 -10 10 -19q1 -10 -11 -20q-10 -9 -20 -10q-11 0 -20 12q-63 68 -68 219z" />
<glyph unicode="J" horiz-adv-x="737" d="M-10 520v6q0 8 4 16q6 9 18.5 12t21.5 -3t12 -18.5t32 -221.5q12 -76 20 -118q10 -51 19 -66q20 -35 43 -47q20 -12 53 -8q96 12 153.5 100t73.5 207q16 106 18 220q1 26 1 52q0 88 -7 177q-8 116 -18 216l-26 232q-14 129 -21 223q0 12 7 21.5t19.5 9.5t21.5 -7.5 t9 -19.5q6 -90 21 -219l27 -231q10 -104 18 -222q6 -94 6 -188v-47q-2 -117 -18 -225q-8 -59 -27.5 -114.5t-51.5 -109t-83 -89t-115 -44.5q-11 -1 -21 -1q-40 0 -71 18q-33 20 -61 67q-12 20 -27 82q-8 45 -18 123q-31 209 -33 217z" />
<glyph unicode="K" horiz-adv-x="940" d="M35 1272q-2 32 -2 73t2 93q8 125 8 159q0 29 28.5 29t28.5 -29q0 -37 -8 -163q-2 -49 -2 -88.5t2 -69.5q4 -61 33 -178q29 -125 35 -189q5 -52 6 -112q0 -30 -2 -62l47 80q35 53 124 176t132 191q152 231 176 389q2 12 11.5 19t21.5 5t19 -11t5 -21q-29 -172 -184 -412 l-133 -193q-84 -117 -123 -176q-47 -70 -102 -180q45 -53 131 -143q123 -129 157 -168q16 -18 129 -162q80 -96 136 -152q10 -10 10 -20q-1 -11 -11 -21t-20 -10t-20 11q-57 59 -138 157q-117 143 -131 160q-43 51 -153 166l-98 104q-2 -33 -5 -61q-3 -56 -3 -107 q0 -26 1 -50q1 -21 1 -43q0 -56 -4 -121q-5 -91 -19 -160q-4 -12 -13.5 -18.5t-21.5 -3.5t-18.5 12.5t-4.5 21.5q13 68 19 154q4 63 5 118q0 20 -1 39q-1 24 -1 50q0 52 3 112q0 14 2 33q-8 0 -14 2q-27 14 -15 39l29 53q-12 23 6 37q2 0 4 2q7 94 7 166q0 60 -5 106 q-6 57 -34 178q-27 123 -33 189z" />
<glyph unicode="L" horiz-adv-x="495" d="M-127 61q2 8 6 15.5t5 10.5t1 7q10 88 21 289q4 66 12 144.5t15.5 135t21.5 148.5t20 139q30 220 30 388q0 93 -9 169q-2 12 6 21.5t20 11.5h4q9 0 16 -6q9 -8 11 -18q11 -84 11 -184q0 -170 -31 -390q-6 -47 -20.5 -138t-21.5 -146.5t-15.5 -133.5t-12.5 -145 q-10 -203 -20 -293q-2 -12 -15 -39q8 0 21 2q10 2 21.5 3t18.5 2t9 1q24 2 56 2t71 -2q98 -4 121 -4q29 0 29 -28q0 -29 -29 -29q-23 0 -125 4q-37 2 -67 2t-52 -2l-6 -2q-8 0 -19.5 -1t-21.5 -3q-20 -2 -35 -2h-14q-12 2 -21 8q-18 13 -18 34q0 13 6 29z" />
<glyph unicode="M" horiz-adv-x="880" d="M-18 51q12 25 12 72v14q0 10 -2 53v54q10 240 10 862q0 66 3 197t3 196v41v35q-11 47 -11 78q0 21 5 35q0 4 2 8q6 10 19 12q5 2 9 2q10 0 19 -10q4 -4 6 -9t4 -16l2 -20q2 -31 3 -72q14 -53 45 -135l55 -145q33 -80 39 -107q37 -119 69 -291l25 58q29 66 117 290 l114 291l39 96q8 18 13 29q4 6 6 10t4 7q6 8 18 10q23 4 35 -17q4 -8 6 -20v-12v-7q8 -46 8 -120v-31q-2 -96 -6 -155.5t-13 -154t-11 -147.5q-7 -137 -7 -299.5t7 -349.5l6 -109q4 -74 6 -121q1 -31 1 -70v-41q-1 -64 -7 -118q-1 -12 -11 -19q-7 -5 -17 -5h-5 q-12 2 -19.5 11t-4.5 21q6 52 7 112v38q0 36 -1 68q-2 46 -6.5 118t-6.5 111q-7 190 -7 354t7 303q4 57 14.5 166t14.5 198q2 44 2 85.5t-2 79.5l-16 -41l-115 -293l-117 -291q-27 -63 -45 -98q-8 -18 -16 -29l-8 -12q-10 -10 -25 -10q-29 0 -37 26q-4 10 -4 29q0 4 1 12 t1 10q2 10 0 13q-33 178 -67 299q-8 25 -39 102l-47 125q-2 -10 -4.5 -126t-2.5 -175q0 -625 -10 -866v-47q2 -43 2 -54v-14q0 -60 -16 -98q-13 -27 -39 -15q-18 8 -18 24q0 7 4 15z" />
<glyph unicode="N" horiz-adv-x="763" d="M-66 1597v2q0 2 1.5 6.5t3.5 6.5q2 6 6 10q10 6 20 6h6q6 -2 10.5 -6t6.5 -8l2 -2q0 -2 2 -6v-4v-3v-10q2 -18 2 -24q8 -49 45 -138q66 -143 76 -184q25 -94 71 -330q45 -211 76 -325q59 -205 103 -379q6 -31 16 -68q6 35 12 84q6 39 13 82l8 78q4 37 4 43 q4 25 18.5 138.5t17.5 149.5t14 136t12 148.5t4 136.5q2 44 2 80.5t-2 66.5q-3 59 -11 134t-22 143q-2 12 5 22t18 12t21.5 -5t12.5 -17q14 -72 20 -148q8 -78 12 -139q3 -37 4 -83q0 -31 -2 -67q-3 -89 -5 -139.5t-13 -150.5l-14 -137q-4 -39 -17.5 -149.5t-17.5 -139.5 q0 -4 -4 -41l-8 -80q-6 -43 -12 -82q-10 -76 -21 -121q-8 -29 -14 -47q-8 -25 -20.5 -35t-26.5 -8q-16 2 -25 17q-6 10 -8 28q0 4 -2 23q0 12 -2 16q-12 55 -25 107l-98 374q-31 102 -78 330q-49 233 -74 330q-8 35 -30 86l10 -76q12 -104 12 -174q0 -111 -3 -333t-3 -333 q0 -19 4 -115q2 -48 2 -88q0 -42 -2 -74q-4 -66 -22 -118q-6 -22 -23 -22q-6 0 -13 2q-28 10 -18 37q15 51 19 109q2 27 2 61q0 39 -2 87q-4 90 -4 121q0 111 3 333t3 333q0 66 -12 168q-20 168 -21 172q-2 25 -10 74q-10 53 -12 80v8q-2 14 -3 28z" />
<glyph unicode="O" horiz-adv-x="688" d="M-55 1120q-1 27 -1 51.5t1 47.5q2 45 8 88q20 127 63 202q47 82 144 121q41 16 77 16q64 0 107 -53q121 -147 125 -438q0 -98 -10 -237q-4 -33 -11.5 -105t-9.5 -106q-4 -51 -10 -197q-6 -141 -12 -197q-12 -106 -68 -211q-37 -68 -80 -94q-29 -19 -60 -19q-29 0 -61 17 q-20 10 -43 35q-2 2 -13 15.5t-19 19.5q-20 18 0 41q2 2 6 4q-39 84 -61.5 185.5t-29.5 166t-13.5 195.5t-10.5 180q-2 23 -7 85t-7 97.5t-4 89.5zM2 1120q2 -51 4 -85t6 -97l8 -86q4 -55 10 -164.5t11.5 -170t19 -146.5t42 -160t71.5 -145q4 -5 4 -11q15 -8 29 -8 q16 0 31 10q31 18 59 72q51 94 61 188q6 57 13 197q6 143 10 197q2 35 9 107.5t11 105.5q10 135 11 231q-4 270 -113 401q-25 30 -65 30q-24 0 -54 -11q-78 -29 -114.5 -94.5t-55.5 -182.5q-6 -41 -8 -84q-1 -22 -1 -45t1 -49z" />
<glyph unicode="P" horiz-adv-x="608" d="M-93 360q-1 4 -1 8q0 8 4 14q6 9 18 13q35 6 47 11q0 29 6.5 133t9.5 144t6 129t4 143.5t1 129t-4 140.5q0 10 -3 44t-9 90t-11 97q-8 90 -10 139q-2 31 -2 50v16q2 4 2 8q4 10 12 19q10 6 20 6q14 0 28 -11l6 -6q127 -43 205.5 -117.5t123.5 -197.5q29 -91 29 -204v-28 q-6 -129 -43 -272q-37 -145 -96 -264q-61 -119 -133 -182q-35 -34 -88 -52v-18q-2 -31 -4 -98.5t-4.5 -109.5t-9.5 -100.5t-17 -105.5q-4 -12 -14 -18q-7 -4 -15 -4q-4 0 -7 1q-11 3 -17.5 13t-3.5 21q12 45 18 100t8 96t4 107.5t4 101.5l-30 -8q-12 -2 -21.5 4t-12.5 18z M20 1620q0 -8 3 -21q2 -49 10 -139l10 -96q6 -57 9 -92t3 -43q2 -57 3 -113v-58v-64q-1 -66 -2 -108t-5 -122t-5 -107.5t-6 -122t-7 -110.5q27 12 47 29q63 57 121 170q55 111 90 249q35 137 41 258v30q0 106 -25 181q-39 111 -106.5 175.5t-180.5 103.5z" />
<glyph unicode="Q" horiz-adv-x="813" d="M-14 1165q8 117 47 232q59 162 157 188q29 7 56 7q104 0 182 -105q57 -80 102 -230q33 -104 50 -299q12 -125 12 -249q0 -71 -4 -142q-12 -229 -62 -379q-37 -107 -90 -168q23 -41 39.5 -75.5t24.5 -57.5q10 -29 10 -43q0 -29 -28 -29v1q-29 0 -29 28q0 4 -7 23 q-8 23 -24 53l-23 47h-26q-12 -6 -23 -12q-27 -10 -39 14q0 2 -2 4q-104 25 -176 129q-86 121 -125 353q-32 186 -32 428q0 132 10 282zM43 1161q-9 -151 -9 -283q0 -238 29 -413q37 -219 117 -330q72 -102 176 -110q6 4 11 8l-19 33q-43 82 -82 141q-37 63 -49 72 q-23 18 -4.5 40.5t41.5 4.5q18 -16 61 -86q39 -61 84 -144l9 -18q37 51 63 131q49 143 59 362q4 75 4 149q0 118 -10 232q-18 193 -47 291q-43 141 -96 211q-61 81 -138 81q-19 0 -40 -5q-68 -16 -115 -150q-39 -104 -45 -217z" />
<glyph unicode="R" horiz-adv-x="724" d="M-25 0q27 51 35 223q5 101 5 229q0 64 -1 134l-2 6q-10 10 -12 18q-10 23 0 41q4 6 12 13l2 2q-2 59 -24 561q0 4 -2 40t-4 82t-4 85q-2 80 -3 127q2 31 5 47q0 10 2 18q2 12 8 19q14 16 49 22q15 3 30 3q67 0 142 -50q68 -45 117 -102q78 -88 78 -300q0 -33 -2 -69 q-6 -113 -31 -214t-66 -157q-35 -49 -157 -110l-78 -37h-2v-23q20 -23 57 -55q63 -55 82 -74q88 -94 162 -233l86 -164q31 -59 39 -80q4 -6 4 -8q2 -2 2 -4v-4q1 -2 1 -4t-1 -5q0 -10 -8 -16q-9 -7 -19 -7q-4 0 -8 1q-6 0 -10 4l-4 4q-2 2 -2 4q-4 4 -17 27q-4 6 -4 12 l-24 51l-84 160q-72 133 -154 221q-16 18 -78 72l-18 16v-70q0 -136 -6 -235q-10 -182 -39 -246q-12 -27 -39 -15q-19 9 -19 25q0 7 4 15zM35 1561q0 -45 2 -125q2 -39 4 -85t4 -82t2 -38q23 -496 23 -539l57 27q111 55 137 92q33 47 55.5 140t28.5 200q2 34 2 64 q0 192 -65 266q-43 49 -105 90q-60 41 -108 41q-10 0 -19 -2q-10 -2 -14 -2q0 -2 -2 -6q0 -14 -2 -41z" />
<glyph unicode="S" horiz-adv-x="794" d="M-8 57q-2 21 -2 41q0 63 24 109q12 25 38 11.5t11 -40.5q-17 -31 -16 -78q0 -18 2 -39q6 -72 43 -88h4q6 0 17 2q8 0 20 2.5t17 2.5q115 10 176 49q76 45 98 141q6 20 7 45t1 36t-3 49t-3 44q-4 68 -19.5 125t-48 114.5t-53.5 86.5l-67 92q-41 55 -64.5 91t-50.5 92 q-27 55 -36 117q-5 37 -5 77q0 27 2 55q16 176 20 205q27 152 97 190q42 21 86 21q17 0 35 -4q62 -12 123 -51t99 -95q31 -46 31 -94q0 -11 -2 -23t-11 -19t-21.5 -5t-19.5 11.5t-5 21.5q1 6 1 13q1 31 -23 67q-28 43 -80 75.5t-102 42.5q-17 3 -31 3q-30 0 -52 -13 q-45 -27 -67 -151q-2 -16 -21 -199q-2 -21 -2 -42q0 -60 17 -116q20 -74 47.5 -120t81.5 -117q49 -63 68.5 -92t55 -91.5t53 -126t21.5 -137.5q0 -10 2 -34.5t3 -39t1 -37t-2 -42t-6 -37.5q-31 -121 -125 -178q-74 -47 -202 -58q-2 0 -14.5 -2t-20.5 -2q-12 -2 -23 -2 q-14 0 -24 4q-70 27 -80 137z" />
<glyph unicode="T" horiz-adv-x="864" d="M-37 1505q0 9 5 17q7 10 18 12q244 45 628 45q29 0 29 -28.5t-29 -28.5q-193 0 -340 -11q25 -3 25 -28q0 -715 -18 -1094q-2 -37 -15 -186q-8 -113 -8 -185v-139v-4q0 -2 1 -5t1 -9q0 -10 -2 -19q-6 -16 -22 -20q-4 -1 -8 -1q-10 0 -19 7q-14 12 -21 35q0 6 -2 12t-2 8 q-10 27 17 37v51v47q0 74 8 189q12 152 14 186q18 377 19 1090q0 23 20 26q-145 -10 -264 -32q-12 -2 -22 5q-12 9 -13 23z" />
<glyph unicode="U" horiz-adv-x="774" d="M-35 418q-12 137 -12 312q0 259 27 601q2 37 20 148q12 86 12 141q0 29 29 29t29 -29q0 -55 -15 -150q-16 -109 -18 -143q-27 -335 -26 -590q0 -176 12 -315q12 -141 34 -219q37 -129 107 -154q39 -14 73 -14q80 0 134 74q59 82 86 239q33 193 39 385q2 76 2 165 q0 142 -6 314q-10 282 -9 392q0 29 29 28.5t29 -28.5q0 -104 9 -388q5 -170 5 -311q0 -94 -2 -175q-6 -202 -39 -390q-31 -174 -98 -266q-71 -97 -175 -97q-46 0 -98 19q-96 35 -141 192q-23 80 -37 230z" />
<glyph unicode="V" horiz-adv-x="927" d="M-27 1561q-5 9 -5 17q0 14 17 23q26 13 38 -12q78 -147 127 -316t95 -407.5t68 -326.5q51 -213 70 -320q2 -12 4 -26l8 47q12 84 27 211q39 344 90 620.5t139 523.5q7 20 24 20q6 0 13 -3q20 -7 20 -24q0 -6 -3 -13q-86 -244 -136.5 -516.5t-89.5 -616.5 q-14 -127 -28 -211q-12 -78 -25 -125q-8 -31 -14 -47q-6 -10 -13 -16q-10 -14 -22 -16q-4 -1 -7 -1q-10 0 -18 5q-10 6 -14 16q-2 10 -2 23q0 2 2 12v6q-6 84 -12 123q-16 102 -70 315q-23 94 -69 330t-93 399.5t-121 305.5z" />
<glyph unicode="W" horiz-adv-x="1060" d="M-76 1612q-5 10 -5 17q1 14 17 23q9 4 15 4q14 0 22 -16q20 -39 33 -104q16 -80 21 -96q25 -76 42 -162t27 -149.5t19.5 -166t12.5 -150.5t9 -168t8 -155q2 -47 17 -170q10 -109 12 -174q0 -6 -2 -16q10 18 21 47q16 51 32 129q12 55 26.5 142.5t16.5 103.5q2 6 25 113v4 v4v10q2 12 4 20q6 16 25 21q14 2 26 -10q4 -6 8 -15q2 -4 4 -10q2 -10 7 -26q4 -27 12 -74q4 -20 10 -51l8 -48q2 -18 4 -24q14 -66 68 -223q35 -102 47 -154q33 94 76 293q117 512 149 799q6 43 17 215q8 137 24 221q4 12 13.5 18t21.5 3q13 -3 19 -12q5 -7 4 -16v-5 q-18 -78 -25 -211q-12 -176 -16 -222q-35 -287 -150 -802q-45 -203 -80 -301v-2l-4 -13q-4 -20 -8 -35l-12 -36q-4 -10 -8 -17q-2 -6 -7 -8q-10 -10 -22 -10q-23 0 -31 22q-4 8 -2 19v6v4v2q-14 78 -61 223q-53 162 -70 230q0 6 -16 100l-2 -14q-4 -14 -18.5 -102.5 t-24.5 -143.5q-16 -82 -37 -135q-23 -70 -53 -101q-10 -10 -19 -14q-25 -14 -45 -2q-22 15 -22 45q0 9 2 20l4 17q2 8 3 13t1 9q-2 61 -13 168q-14 125 -16 172q-2 37 -8 157t-9 167t-12.5 148.5t-19.5 163t-26.5 145.5t-39.5 157q-6 18 -22 103q-10 57 -27 86z" />
<glyph unicode="X" horiz-adv-x="849" d="M-41 -43q-1 3 -1 5q0 5 3 11q0 2 2 4l4 9q4 8 13 18l36 53q55 80 62 88q66 131 147 365l37 100l41 121q18 53 33 103l-12 45q-119 383 -351 718q-14 25 9.5 40.5t40.5 -7.5q219 -322 339 -690l3 8q4 16 20 101l21 108l20 96q16 72 25.5 109t22.5 96.5t27.5 108.5t30.5 98 q6 22 23 22q6 -1 13 -3q28 -10 18 -35l-29 -97q-14 -49 -27.5 -107.5t-22.5 -95t-24 -108.5l-20 -94l-21 -111q-18 -84 -20 -100q-10 -49 -27 -102q16 -53 56 -203q43 -168 73 -258q10 -29 38 -94.5t45.5 -121t21.5 -106.5q0 -12 -7.5 -21.5t-19.5 -9.5t-21.5 7.5t-9.5 19.5 q-4 47 -19 95t-42 112q-27 59 -39 98q-35 100 -76 264l-30 115q-14 -45 -45 -128t-41 -114q-82 -238 -152 -368q-6 -14 -64 -96l-24 -33q6 -6 8 -12q2 -12 -4 -22.5t-16 -14.5h-4l-11 -6q-10 -6 -18 -7q-12 0 -23 9q-8 6 -12 18z" />
<glyph unicode="Y" horiz-adv-x="804" d="M0 1571q-5 9 -5 17q0 13 15 22q9 5 17 5q13 0 22 -16l115 -186q80 -129 127 -224t78 -202l2 14q6 16 84 281q47 164 71 283q2 10 12.5 17t21.5 5t18 -13q6 -8 6 -17q0 -31 -74 -291q-78 -264 -82 -281q-6 -18 -29 -117q-18 -76 -34 -123q-68 -193 -142 -471 q-8 -29 -24.5 -74.5t-26.5 -81.5t-12 -71q0 -12 -9.5 -19.5t-21.5 -7.5t-19.5 9.5t-7.5 21.5q2 37 13.5 79t29 90t21.5 71q82 299 145 475q12 39 27 94q-2 2 -2 6q-16 100 -55 199.5t-76 161.5l-103 170q-66 109 -102 174z" />
<glyph unicode="Z" horiz-adv-x="851" d="M-25 -57q2 6 5 16q2 12 10 35q14 39 41 104q86 211 96 238q39 111 190 459q123 283 175 460q2 14 22 60l35 82q18 47 22 73q2 8 2 13l-4 2q-16 2 -43 4l-127 6q-199 8 -221 10q-16 2 -39 8q-4 2 -15 4.5t-18 4.5q-33 8 -59 4q-12 -2 -21.5 5t-11.5 19.5t5.5 21.5t19.5 11 t25 2q26 0 55 -8q6 0 18.5 -3t16.5 -5q18 -4 32 -6q18 -2 217 -11q82 -4 127 -6q29 -2 45 -4q25 -4 35 -10q18 -10 21 -37q1 -5 1 -10q0 -11 -3 -27q-6 -31 -27 -82l-35 -84q-18 -43 -22 -53q-51 -182 -174 -467q-158 -367 -191 -457q-10 -29 -96 -237q-29 -70 -39 -103 l-4 -10q10 2 45 4l178 15q164 12 191 14q96 8 118 8q29 0 29 -28.5t-29 -28.5q-20 0 -114 -8q-23 0 -189 -15l-180 -14q-39 -4 -59 -4h-19h-8h-4q-8 2 -14 8q-10 10 -11 27z" />
<glyph unicode="[" horiz-adv-x="587" d="M-27 -172q0 43 4 125q6 133 25 354q6 98 18 242l21 229q6 84 6 109v49q0 39 -1 105.5t-1 115.5v168q2 37 2 57q2 12 2 18.5t2 8.5q2 10 8 14q14 18 41 13q8 0 13 -2h2q14 0 53 1t61.5 1t55 -3t59.5 -8q10 -2 17.5 -12t5.5 -21.5t-12.5 -18.5t-22.5 -5q-23 6 -52.5 8 t-51 2t-59.5 -1t-54 -1h-11q0 -18 -2 -53v-166q0 -47 1 -114.5t1 -108.5v-47q0 -27 -6 -111l-20 -229q-12 -145 -19 -244q-18 -219 -24 -354q-4 -82 -4 -121v-39v-4q8 -4 24 -10q29 -8 80 -25q25 -6 59.5 -16t56 -17.5t30.5 -9.5q27 -10 16.5 -36.5t-37.5 -16.5q-6 2 -27 8 l-57 16q-33 10 -57 17q-53 16 -82 26q-20 6 -31 13q-6 2 -12 6q-10 6 -14.5 15t-6.5 30v43z" />
<glyph unicode="\" horiz-adv-x="684" d="M-37 1300q-2 12 4 21.5t18.5 12.5t21.5 -3t13 -18q6 -31 21 -139q10 -84 27 -130q25 -66 116 -264q82 -176 117 -270q18 -53 46 -143.5t53.5 -161t58.5 -129.5q14 -27 -11.5 -40t-37.5 11q-35 63 -63 138t-55.5 167t-43.5 137q-35 94 -115 267q-86 180 -119 268 q-20 53 -30 141q-12 106 -21 135z" />
<glyph unicode="]" horiz-adv-x="634" d="M2 1495q0 29 28.5 29t28.5 -29q0 -12 4 -16q6 -4 19 -6q25 -6 92 2q82 12 109 10q74 -4 82 -62q6 -37 8 -78.5t4 -98t2 -75.5q2 -55 16 -170q14 -111 17 -172q12 -330 -29 -704q-2 -12 -4 -86q-6 -141 -6 -152q-4 -94 -8 -145q-2 -33 -5 -51q-2 -10 -4 -16.5t-2 -8.5 q-4 -8 -10 -13t-16 -9h-13q-12 -2 -28 -2q-31 0 -76 2q-96 6 -129 12q-10 2 -17.5 12t-5.5 21.5t12.5 18.5t22.5 5q29 -6 119 -12q45 -2 74 -2h16q2 16 4 47q4 51 8 143q0 10 7 152q2 76 4 92q43 371 28 692q-2 57 -16 170q-14 115 -16 172q0 25 -2.5 80.5t-4.5 93t-8 74.5 q-2 10 -26 12q-23 2 -100 -8t-109 -4q-31 6 -49 25q-20 20 -21 55z" />
<glyph unicode="^" horiz-adv-x="901" d="M104 827q37 51 70 108.5t64 129.5l53 121q18 47 53 137l45 125v2l2 6l6 21l6 22l3 6l2 4q2 4 2 7l4 4q8 6 16 8q27 4 43 -25l6 -12l2 -6q16 -31 33 -86q23 -74 25 -82q102 -279 141 -418q2 -12 -4 -22.5t-17.5 -13.5t-21.5 3t-14 17q-37 139 -138 413q-6 14 -26 86 q-8 29 -15 48l-2 -3q-12 -31 -45 -120l-53 -142q-20 -49 -53 -123.5t-68 -135t-73 -111.5q-16 -25 -40 -8t-6 40z" />
<glyph unicode="_" horiz-adv-x="1236" d="M59 -266.5q0 12.5 9.5 19.5t21.5 7q45 -2 94 1t109.5 10.5t99.5 9.5q45 2 93.5 2t113 -1t94.5 -1q174 -2 285 29q12 4 22.5 -2.5t13.5 -17.5t-3.5 -21.5t-16.5 -12.5q-119 -35 -303 -32q-29 0 -98.5 1t-99 1t-97.5 -2q-33 -2 -95 -9.5t-115.5 -10.5t-100.5 -1 q-12 0 -19.5 9t-7.5 21.5z" />
<glyph unicode="`" horiz-adv-x="530" d="M76 1382q-10 27 16.5 37.5t36.5 -16.5q70 -172 170 -264q23 -18 3.5 -40t-40.5 -1q-111 100 -186 284z" />
<glyph unicode="a" horiz-adv-x="917" d="M-23 872q6 14 23 101q14 70 45 110q65 85 153 85q49 0 105 -27q125 -61 238 -242q109 -174 141 -356q10 -59 11 -110q0 -82 -27 -146v-4q23 -74 28 -90q3 -7 3 -14q1 -15 -19 -23q-26 -10 -37 16l-16 47q-57 -69 -157 -93q-53 -12 -105 -13q-47 0 -95 10q-104 23 -174 91 q-67 64 -67 158v11q4 68 60 115t136 71q67 22 143 22h7q80 -1 129 -30q76 -43 129 -174q3 23 3 48q0 44 -9 97q-29 174 -133 336q-102 166 -216 222q-40 20 -75 20q-63 0 -111 -63q-23 -29 -35 -86q-16 -88 -24 -109q-10 -27 -37 -17q-20 7 -20 24q0 6 3 13zM84 379v-10 q0 -68 51 -117q55 -53 146 -72q42 -9 83 -9q46 0 91 11q84 20 129 78q10 15 20 31q-14 43 -26 76q-45 111 -105 145q-35 20 -100 20h-12q-60 0 -121 -18q-70 -20 -112 -56t-44 -79z" />
<glyph unicode="b" horiz-adv-x="718" d="M-14 799q-8 10 -8 20q0 11 12 21q8 6 18 12l4 33q2 18 5 39.5t6 31.5q10 72 12 117q1 20 1 46q0 54 -3 136q-4 74 -4 127q0 36 2 62q2 29 7 74q5 46 7 66q1 7 1 16q0 19 -3 49q-2 12 5 21q8 9 20 11h5q9 0 16 -5q9 -7 11 -19q3 -33 3 -56q0 -11 -1 -20q-2 -27 -8 -73 t-6 -68q-2 -24 -2 -58q0 -51 4 -122q3 -85 3 -140q0 -27 -1 -47q-2 -49 -12 -125l-10 -76q9 1 18 1q43 0 92 -23q74 -37 144 -117q175 -201 175 -401q0 -74 -24 -148q-39 -123 -139 -192q-70 -49 -154 -49q-33 0 -69 8l-35 4q-31 2 -49 16q-10 6 -15 19q-4 8 -6 18 q-2 18 -6 47q-4 47 -6 125q-2 76 -2 209q0 309 8 399q-10 2 -16 11zM51 389q0 -133 2 -207q2 -76 6 -123q2 -25 7 -39v-2q-2 0 -5 -2q3 2 5 0q14 -4 16 -4q39 -4 43 -4q29 -7 57 -7q67 -1 124 39q81 56 116 161q20 64 20 128q0 182 -163 367q-61 70 -125 103q-34 18 -65 18 q-15 0 -28 -4q-10 -98 -10 -424z" />
<glyph unicode="c" horiz-adv-x="858" d="M-12 256q-4 42 -4 84q0 85 16 172q27 133 94 227q66 92 164 144q46 25 102 24q51 0 111 -20q125 -41 164 -129q3 -8 3 -14q0 -16 -18 -24q-26 -12 -38 13q-27 66 -129 101q-51 16 -92.5 16t-73.5 -16q-88 -47 -148 -127q-59 -84 -83 -205q-16 -80 -15 -159q0 -40 4 -81 q12 -119 49 -223q31 -88 122 -123q38 -15 74 -15q51 0 99 29q18 12 31.5 25.5t39 47.5t29.5 40q6 8 19 23l14 16q4 6 10.5 15t8.5 17.5t2 18.5q0 29 28.5 29t28.5 -29q0 -16 -4 -31.5t-12.5 -31t-15.5 -23.5t-18 -22.5t-15 -18.5q-6 -6 -22.5 -28.5t-28 -36t-30 -30.5 t-36.5 -30q-63 -37 -127 -37q-11 0 -23 2q-76 8 -139 56q-63 47 -88 116q-41 115 -53 238z" />
<glyph unicode="d" horiz-adv-x="890" d="M-10 625q-3 61 -3 114q0 168 33 265q37 102 123 145q40 24 88 24q11 1 23 -1q62 -6 119 -31t110.5 -66t94.5 -92q0 45 -3 102q-2 37 -9 179q-6 125 -6 169v11q1 37 5 174q2 35 15 104q12 63 14 99q0 12 9 19t21.5 7t19.5 -9t7 -21q-2 -37 -14 -104.5t-14 -98.5l-5 -172 v-21q0 -46 5 -155l10 -179q2 -46 2 -87q0 -62 -4 -113q17 -44 17 -84q0 -18 -3 -35q0 -2 -2 -4q8 -84 13.5 -189.5t7.5 -175t4 -197.5t2 -177q0 -12 -8.5 -20.5t-20.5 -8.5t-20.5 8t-8.5 21q0 43 -2 186t-5 240.5t-9 189.5q-12 -43 -27 -82l-32 -100q-23 -72 -45 -117 q-68 -141 -187 -154q-13 -1 -27 -1q-44 1 -90 15q-60 20 -98 60q-43 47 -70 152q-23 90 -30 211zM47 629q8 -115 29 -201q23 -90 55 -125q29 -31 76 -46q37 -12 74 -11h20q86 8 139 121q18 41 41 108q29 90 35 105q47 127 57 297q-35 84 -124 153q-74 56 -149 76 q-32 8 -61 9q-38 0 -71 -15q-66 -35 -94 -117q-31 -86 -30 -240q-1 -53 3 -114z" />
<glyph unicode="e" horiz-adv-x="942" d="M14 508q16 156 72.5 279.5t153.5 173.5q32 16 68 16q57 0 122 -41q86 -53 166 -162q74 -100 109 -194q16 -49 18 -84q0 -47 -27 -70q-6 -4 -16 -6q-4 -2 -8 -2h-21q-25 0 -67 2q-61 2 -197 10q-299 19 -319 19q-1 -25 -1 -50q-1 -100 19 -188q24 -109 72 -164 q37 -39 99 -59q47 -16 99 -16q16 0 33 2q70 6 126 35.5t83 78.5q12 25 38 11.5t11 -40.5q-33 -63 -102.5 -100t-151.5 -43q-16 -1 -32 -1q-63 1 -123 19q-76 24 -121 76q-65 72 -91 210q-16 89 -17 183q0 52 5 105zM72 506q23 -2 319 -19q174 -10 195 -10q43 -2 65 -2h11 q4 6 4 19q-2 27 -17 67q-31 86 -98 178q-74 100 -150 148q-50 31 -91 31q-24 0 -46 -11q-76 -37 -126 -146.5t-66 -254.5z" />
<glyph unicode="f" horiz-adv-x="739" d="M-218 744q19 22 40 1q4 -2 8 -8l6 -6l2 -2q6 -2 31 -2q20 0 57 4q90 6 103 6q0 49 -3 171t-3 189.5t3 167t11 181.5q8 78 22 131q25 86 74 119q43 31 100 31q52 0 115 -27q109 -47 164 -125q8 -10 8 -19q0 -11 -14 -21q-23 -17 -39 7q-47 66 -141 105q-53 24 -95 24 q-37 0 -65 -20q-31 -23 -51 -90q-12 -47 -21 -119q-8 -82 -11 -181.5t-3 -167t3 -187.5t3 -173q78 -8 180 -35q10 -4 16.5 -14t3.5 -21.5t-13.5 -17.5t-22.5 -4q-92 25 -164 35v-2q0 -113 -8 -337t-8 -337q0 -29 -29 -29t-29 29q0 113 8.5 337t8.5 337v4v2q-8 0 -99 -6 q-39 -4 -61 -4q-35 0 -51 6q-12 4 -25 16l-6 8q-2 2 -2 5q-12 10 -12 21q0 9 9 18z" />
<glyph unicode="g" horiz-adv-x="843" d="M-213 -223q-1 3 -1 6q0 9 5 17q6 10 18.5 12t22.5 -4.5t12 -18.5q2 -10 5.5 -33.5t5.5 -36.5q8 -37 18 -53q25 -33 88 -43q22 -3 47 -3q44 0 96 9q78 14 146.5 42t101.5 57q100 94 144 335q4 27 8 64q-86 -90 -262 -90q-109 0 -187 65.5t-110.5 160.5t-34.5 208 q0 111 29.5 215.5t97 189.5t160.5 115q41 14 73 21q25 5 45 5q25 0 43 -7q111 -39 142 -146q51 -166 63 -520l4 12q10 27 37 16q20 -7 20 -23q0 -6 -3 -13q-25 -68 -56 -123q-2 -102 -12 -158q-47 -262 -164 -368q-37 -37 -114.5 -68t-159.5 -47q-53 -9 -98 -9q-34 0 -64 5 q-86 12 -125 65q-20 27 -29 76l-6 37q-4 23 -6 31zM-33 471q2 -162 74 -269.5t201 -107.5q160 0 227 82q21 24 39 53q0 158 -17.5 343.5t-44.5 275.5q-25 78 -108 108q-8 3 -19 3q-16 0 -38 -5q-29 -4 -68 -16q-113 -39 -179.5 -172t-66.5 -295z" />
<glyph unicode="h" horiz-adv-x="854" d="M41 451q12 25 29 61q14 817 14 1126q0 29 28.5 29t28.5 -29q0 -328 -12 -981q33 74 68 119q47 63 109 83q27 9 53 9q33 0 63 -14q55 -20 99 -67.5t65 -106.5q35 -100 44 -223q4 -62 4 -116q0 -53 -4 -101q-9 -94 -30 -217q-4 -25 -6 -82q0 -57 -6 -91q-2 -10 -12 -17 q-8 -5 -17 -5h-5q-11 2 -18.5 12t-5.5 23q6 27 7 80q2 59 6 88q21 123 29 215q5 49 4 104q0 48 -4 102q-8 114 -40 207q-18 51 -53 89t-76 53q-24 9 -47 9q-63 0 -114 -67q-37 -49 -78 -151l-37 -92l-2 -74q0 -49 -5 -123t-8 -125q-2 -31 -2 -66q0 -24 1 -50q2 -64 12 -117 q2 -12 -5 -22.5t-18.5 -12.5t-21.5 5t-12 17q-12 70 -14 147v32q0 67 5 155l11 142q-8 0 -17 4q-16 8 -16 21q0 8 6 18z" />
<glyph unicode="i" horiz-adv-x="350" d="M-8 1194v8v6q2 6 8 13q9 8 20 8q7 0 15 -4q6 -2 10 -8l2 -9q2 -2 2 -8l8 -22q2 -13 -4 -23q-2 -25 -26 -27q-10 0 -19.5 7.5t-11.5 19.5t-2 31q-2 6 -2 8zM18 954v6q0 10 4 16q6 10 19 12q4 1 8 1q7 0 13 -4q10 -6 14 -18q55 -241 55 -450q0 -57 -4 -111q-1 -37 -19 -160 q-14 -100 -15 -165q0 -15 1 -28q0 -12 -7 -21t-19.5 -9t-21.5 7t-9 19q-1 14 -1 30q0 69 14 177q18 133 20 154q4 50 4 103q0 204 -56 441z" />
<glyph unicode="j" horiz-adv-x="415" d="M-254 -94q0 12 8 21.5t19.5 9.5t20.5 -8.5t9 -18.5v-51q0 -39 2 -74t9 -61q10 -45 27.5 -58.5t54.5 4.5q53 29 75 82q10 25 18.5 55.5t14.5 53.5l12 61q10 39 13 55q41 180 63.5 401.5t27.5 368t9 408.5q0 12 8 20.5t20.5 8.5t20.5 -8.5t8 -20.5q-4 -264 -9 -410.5 t-27.5 -370.5t-63.5 -409q-4 -14 -12 -55l-13 -62q-6 -25 -16 -58.5t-20 -57.5q-31 -74 -105 -111q-35 -19 -64 -19q-28 0 -51 17q-35 27 -47 92q-6 31 -9 70t-3 80v45zM131 1419l6 35q2 12 13 20q8 5 16 5h5q11 -2 18.5 -12.5t5.5 -20.5l-7 -35q-2 -12 -12 -19 q-8 -6 -16 -6h-6q-11 3 -18 13t-5 20z" />
<glyph unicode="k" horiz-adv-x="792" d="M-14 496q18 22 41 4l20 -19q2 41 4 78q0 92 2 129q1 12 1 31q0 37 -3 99q-4 93 -6 130l-8 129l-6 129q-2 43 -3 116t-3 132t-13 111q-2 10 5.5 20t18.5 12h5q9 0 17 -5q10 -7 12 -19q8 -51 11 -114.5t4 -137.5t3 -111l6 -129l8 -131q2 -37 6 -132q3 -66 4 -103 q0 -17 -1 -28q-2 -36 -2 -132v-6q25 39 51 78l61 78l55 71l64 78l57 70l64 75l59 70q18 23 41 5q13 -10 13 -22q0 -9 -9 -20l-61 -71l-66 -76l-57 -70q-43 -51 -62 -78l-57 -69q-35 -47 -57 -80l-51 -76q-29 -41 -52 -80l179 -170q158 -152 256 -225q25 -16 7 -40 q-10 -13 -21 -13q-9 0 -19 8q-96 70 -262 229l-148 141l-6 -61q-16 -164 -16 -250q0 -29 -29 -28.5t-29 28.5q0 94 17 256l4 49l-8 4q-25 14 -11 39l13 23l-39 33q-13 10 -13 21q1 10 9 20z" />
<glyph unicode="l" horiz-adv-x="321" d="M14 1602q-3 7 -3 13q0 16 21 23q7 2 12 2q18 0 24 -22q27 -76 27 -218q0 -23 -1 -48q0 -35 -3 -95.5t-3 -89.5v-80q12 -309 12 -1071q0 -29 -28 -29v1q-28 0 -29 28q0 762 -12 1067v84q0 29 3 90.5t3 94.5q1 22 1 42q0 138 -24 208z" />
<glyph unicode="m" horiz-adv-x="1116" d="M-2 821q0 12 7 21.5t19.5 9.5t21.5 -7t9 -20q2 -29 10.5 -207t16.5 -272q20 125 45 223q39 154 86 219q35 45 74 52q6 1 11 1q41 0 79 -38q25 -25 39 -80q12 -45 18 -115q6 -61 6 -145q6 37 13 69q20 117 61 189q51 92 131 110q15 3 30 3q55 0 95 -48q37 -43 61 -129 q8 -33 15.5 -74.5t10.5 -70.5t6 -63.5t5 -42.5q2 -18 15 -84q12 -53 12 -91q0 -10 -14 -213q-2 -35 -2 -67q0 -78 14 -133q2 -10 -4 -20q-5 -11 -17 -14q-4 -1 -8 -1q-7 0 -14 4q-10 6 -14 18q-15 64 -15 153q0 31 2 65q14 201 15 208q0 31 -11 80q-14 70 -16 86 q0 2 -5 58.5t-12.5 101.5t-17.5 86q-20 73 -49 107q-22 26 -52 26q-9 0 -18 -2q-55 -12 -94 -80q-35 -63 -55 -172q-18 -96 -29 -350q-2 -33 -8 -109q-8 -68 -8 -104q0 -31 -4 -47q-2 -16 -8 -27q-10 -14 -27 -14q-14 -2 -27 10q-10 10 -14 31q-2 12 -4 33q-2 35 -2 96 q0 41 3 135t3 141v70q0 133 -6 215q-6 66 -17 107q-10 39 -24 53q-23 23 -40 20.5t-36 -28.5q-43 -55 -78 -199q-53 -207 -65 -399q0 -6 -6 -95l-2 -59l-3 -18v-7v-2v-2q0 -2 -2 -4v-4q-4 -8 -12 -12q-16 -10 -33 2q-4 4 -8 10q0 2 -2 6v6q-2 4 -2 15q-2 14 -2 37 q-4 51 -4 61q0 88 -10 191q-8 84 -15 170q-4 88 -9 200.5t-9 169.5z" />
<glyph unicode="n" horiz-adv-x="808" d="M18 -82q2 33 13 86q8 54 22 115q0 123 -8 370.5t-8 372.5q0 29 28.5 29t28.5 -29q0 -61 12 -520q35 141 70 242q47 141 96 223q68 109 142 117h8q38 0 72 -33q27 -25 47 -74q37 -78 43 -151q4 -55 4 -122t-2 -112t-8 -125q-4 -72 -7 -112q-1 -23 -1 -51q0 -56 5 -134 q8 -139 9 -190q0 -29 -29 -29t-29 29q0 49 -8 186q-5 86 -5 143q0 29 1 50q2 35 7 113.5t7 121.5t2 107.5t-4 120.5q-6 61 -37 133q-18 37 -36 57q-16 16 -31 14q-49 -4 -100 -90q-47 -76 -93 -211q-25 -74 -46 -154.5t-40.5 -163.5t-21.5 -95q-4 -14 -10 -39 q0 -72 -11 -156q-4 -39 -10 -63q-2 -14 -6 -21q-2 -8 -6 -12q-12 -16 -31 -13q-16 4 -22 21q-4 6 -7 16v33z" />
<glyph unicode="o" horiz-adv-x="1015" d="M6 454q-8 60 -8 114q0 67 12 122q25 109 125 234q98 121 174 133q42 7 81 6q123 0 218 -64q162 -113 185 -278q3 -23 3 -49q0 -66 -18 -152q-27 -121 -80 -233q-59 -125 -135 -189q-71 -60 -150 -60q-7 0 -14 1q-29 -5 -57 -5q-55 0 -104 21q-98 43 -162 162 q-52 101 -70 237zM62 461q16 -125 65 -217q53 -102 133 -135q43 -19 92 -19q10 14 27 10l16 -4q35 8 72 25q14 6 27 -2q16 10 32 22q66 57 121 170q49 104 73 218q17 81 18 140q0 24 -3 44q-18 141 -160 237q-79 55 -184 55q-35 0 -74 -6q-53 -8 -137 -112 q-92 -115 -112 -209q-13 -54 -13 -118q0 -47 7 -99z" />
<glyph unicode="p" horiz-adv-x="782" d="M18 1061q2 31 7 41q17 38 61 38q16 0 37 -5q47 -14 119 -58q55 -35 108 -77t72 -62q76 -90 115 -207q26 -83 26 -167q0 -34 -4 -68q-18 -158 -152.5 -281t-295.5 -129v-23q-2 -45 -11.5 -152.5t-11.5 -162.5v-25q0 -43 4 -116q4 -58 4 -99q0 -28 -2 -49q0 -12 -9 -19 t-21.5 -7t-19.5 9t-7 21q2 17 2 43q0 39 -4 97q-5 77 -5 120q0 14 1 25q2 57 11 164.5t11 155.5v20h-6q-12 2 -19.5 11.5t-5 21.5t11.5 19t21 5h2q3 97 3 195t-3 195q0 14 -4 56t-10 114l-10 116q-8 113 -13 176q-2 39 -2 64zM76 1059q0 -20 2 -60q4 -61 12 -172l10 -118 q6 -74 10.5 -116t4.5 -58q3 -97 3 -195t-3 -197q137 6 253.5 115t133.5 246q3 27 3 54q0 78 -25 156q-34 105 -103 187q-12 14 -62.5 54t-103.5 73q-63 39 -102 51q-19 5 -26 5q-6 0 -5 -3q0 -4 -2 -22z" />
<glyph unicode="q" horiz-adv-x="976" d="M9 958v22q0 100 24 204q51 184 172 280q100 78 224 78q52 0 108 -14q63 -16 108 -47q2 10 6 20v6l2 2q2 8 4 15q4 12 13 18q10 10 21 10q9 0 18 -6q25 -14 18 -47q-2 -8 -4 -12v-4v-82q18 -29 31 -62q3 -7 3 -13q0 -16 -20 -23q-6 -3 -14 -3q0 -59 -6 -106 q-2 -6 -10.5 -80t-14.5 -117q2 -51 2 -86q0 -92 11 -311q8 -178 8 -277v-36q0 -43 -15 -117q-12 -74 -14 -109q-1 -17 -1 -35q0 -27 2 -56q3 -48 11.5 -113.5t10.5 -96.5q0 -12 -7.5 -20t-19.5 -9h-3q-10 0 -17 6q-9 7 -11 19q-2 25 -10 92.5t-11 118.5q-2 31 -2 60 q0 20 1 39q2 37 14 114q14 70 14 107v36q0 97 -8 275q-6 131 -8 180q-82 -219 -262 -219q-106 0 -176 39q-88 47 -138.5 147.5t-53.5 212.5zM82 861q39 -154 147 -214q57 -31 148 -31q152 0 219 211q23 72 39 172q0 14 -4 89t-6 116v42q0 101 8 171q-43 37 -109 53 q-51 13 -98 13q-103 0 -184 -64q-109 -84 -154 -250q-24 -83 -24 -165q0 -72 18 -143z" />
<glyph unicode="r" horiz-adv-x="679" d="M0 965q-4 8 -4 15q0 15 18 24q8 4 15 4q15 0 24 -19q29 -63 39 -186q12 -152 19 -178q2 -8 30 -138q8 -35 13 -63q-3 66 -3 120t3 97q12 225 104 303q45 37 168 55q12 2 22 -5q12 -9 11 -24q1 -8 -5 -16q-8 -10 -20 -12q-106 -14 -139 -43q-74 -61 -86 -262 q0 -91 -1 -115v-10q0 -28 4 -97q5 -83 5 -87q3 -70 3 -131t-3 -115q-2 -23 -2 -35v-6v-4q0 -2 -2 -6v-2q-2 -8 -4 -27v-4v-6v-10q-2 -8 -3 -14.5t-5 -10.5q-9 -12 -23 -12h-4q-12 2 -18 10q-4 4 -6.5 8t-4.5 12q0 6 -2 15q-2 16 -4 41q-4 41 -10 116q-16 184 -18 193 q-6 47 -27 135q-29 129 -31 137q-6 33 -18 187q-10 113 -35 166z" />
<glyph unicode="s" horiz-adv-x="882" d="M27 803q-1 13 -1 26q0 93 64 150q66 57 168 59h15q90 0 171 -43q88 -47 115 -133q10 -27 -17.5 -36t-35.5 20q-20 63 -91 101q-66 35 -143 35h-12q-84 -3 -131 -46q-46 -39 -46 -108q0 -10 1 -21q4 -43 76 -105q33 -27 176 -127q66 -47 98 -71q41 -33 90 -79t80 -96 t45 -106l13 -61q2 -15 2 -28q0 -28 -9 -46q-39 -92 -161 -119q-45 -10 -90 -10q-66 0 -134 21q-123 35 -174 116q-30 45 -30 94q0 56 38 117q14 25 39 10.5t11 -38.5q-30 -48 -30 -90q0 -33 19 -62q41 -63 144 -92q60 -19 118 -18q38 -1 76 7q94 20 121 85q6 14 2 45 q-2 18 -12 57q-20 86 -94 159.5t-195 157.5q-150 104 -180 131q-90 76 -96 144z" />
<glyph unicode="t" horiz-adv-x="532" d="M-201 1040v6q1 9 5 17q6 10 18 12q51 10 162 15q2 95 2 180q0 127 -4 231q0 12 8 21.5t19 9.5t20.5 -8t9.5 -19q4 -106 4 -232q0 -85 -2 -179q43 1 80 1q103 0 166 -8q10 -2 18 -11q6 -7 6 -16q0 -14 -11 -24q-9 -8 -21 -6q-59 7 -156 7q-39 0 -84 -1q-2 -49 -8 -264 q-7 -221 -7 -394q0 -198 9 -333q2 -18 3 -64.5t3 -77t10 -57.5q12 -41 35 -63q29 -23 78 -25q41 -2 45 2q8 2 18 27q12 27 38 15.5t16 -35.5q-20 -47 -50 -60q-13 -6 -48 -6h-19q-72 2 -115 39q-37 33 -53 92q-8 29 -10 64q-4 35 -6.5 84t-2.5 61q-9 138 -9 337q0 174 7 396 q6 213 9 258q-102 -4 -148 -14q-12 -2 -22.5 4t-12.5 18z" />
<glyph unicode="u" horiz-adv-x="866" d="M10 539v40q0 120 10 244q14 147 27 221q2 12 12.5 19.5t21.5 5.5t18 -12.5t5 -20.5q-12 -74 -26 -217q-10 -123 -10 -241v-39q2 -172 30 -267q28 -96 80 -96h2q14 0 25 4l14 4q6 2 20.5 10.5t26.5 14.5q137 72 176 270q12 63 25 183q10 129 20 184q6 33 9 67q4 35 7 84.5 t5 71.5q2 27 4 55q2 35 2 47l2 9v14q0 10 1 15t5 8q9 14 23 14q6 0 12 -2q4 -2 8 -6l6 -6l2 -5q0 -2 2 -6q6 -26 6 -61t-6 -78q-2 -12 -5 -35.5t-5 -30.5q-6 -37 -6 -61q-2 -51 -2 -112q0 -183 18 -457q0 -8 -4 -97q-1 -19 -1 -34q0 -29 5 -41l3 -6q2 -2 6 -3.5t7 -2.5 t13 -2t19 -3q10 -2 17 -12q5 -8 5 -16v-6q-2 -12 -12 -18.5t-23 -4.5l-12 2q-10 2 -18.5 4t-20.5 7t-21.5 14.5t-15.5 21.5q-10 22 -10 64q0 18 2 41q4 84 4 88l-10 153l-8 -51q-45 -227 -209 -309q-6 -4 -22.5 -13.5t-24.5 -13.5t-24.5 -9t-35.5 -5h-5q-94 0 -136 135 q-31 100 -33 285z" />
<glyph unicode="v" horiz-adv-x="849" d="M-45 1139q-4 8 -4 15q1 15 19 24q8 4 14 4q15 0 24 -19q14 -31 25 -80q12 -63 14 -71q12 -39 89 -267.5t97 -357.5l21 -147l10 -62q12 20 27 55q8 16 49 127q23 63 53 197q33 143 56 205q10 31 59 147.5t63 184.5q4 12 13.5 18t21.5 3t18 -12q5 -7 5 -16v-6 q-16 -70 -68.5 -195.5t-58.5 -144.5q-23 -61 -53 -196q-33 -141 -56 -205q-41 -111 -49 -131q-20 -47 -41 -74q-26 -32 -54 -32q-9 0 -18 3q-8 4 -14 11q-2 4 -2 6t-2 4v2q0 4 -2 8q0 8 -2 23l-10 71q-18 119 -23 148q-20 125 -95 346t-87 270q-4 12 -19 76q-8 43 -20 68z " />
<glyph unicode="w" horiz-adv-x="892" d="M-94 1163v5q0 8 5 16q7 10 19 12h6q9 0 16 -6q9 -8 11 -19q16 -109 17 -114q0 -31 14 -162q4 -37 20 -98q23 -86 27 -105q20 -104 51 -350l17 -143l41 174l30 125q12 45 21 71q6 16 12 27l8 12q10 10 25 10q18 0 30 -16q6 -8 15 -22q8 -20 20 -62q12 -49 39 -178 q29 -131 43 -182q10 -41 19 -64l10 -22l4 -2q2 0 4 2q10 10 23 43q10 29 26 116q12 55 23 185q10 125 24 190q14 63 45 186t43 181q4 12 13.5 18t22 3t18.5 -12q4 -7 4 -15v-6l-45 -181q-31 -123 -43 -186q-14 -61 -25 -184q-12 -129 -22 -191q-18 -90 -31 -123 q-14 -45 -37 -65q-16 -16 -37 -19h-5q-20 0 -38 15q-16 10 -31 45q-10 27 -22 69l-41 187q-31 141 -41 176q-2 12 -6 24q-6 -18 -12 -45q-6 -23 -29 -123q-41 -174 -64 -251q0 -4 -4 -21q-2 -18 -4 -27q-6 -20 -14 -28q-10 -12 -25 -15q-12 -2 -26 7q-20 14 -17 45q2 8 4 12 v2q0 72 -22 250q-31 246 -51 346q-4 20 -25 102q-18 66 -22 109q-14 133 -15 166q0 2 -16 106z" />
<glyph unicode="x" horiz-adv-x="940" d="M-52 964q10 28 36 17q59 -18 155 -131q70 -82 180 -240l43 -61q188 328 306 485q9 15 21 15q9 1 19 -7q13 -10 13 -22q0 -9 -8 -19q-115 -156 -314 -505q182 -262 238 -318q20 -20 -0.5 -40.5t-40.5 -0.5q-59 59 -227 303q-190 -328 -326 -501q-10 -13 -21 -13 q-10 0 -20 8q-22 18 -4 41q135 170 334 519l-60 84q-119 166 -176 235q-86 100 -129 115q-22 6 -22 23q1 6 3 13z" />
<glyph unicode="y" horiz-adv-x="944" d="M-29 -549q-1 9 -1 18q0 74 57 169q8 14 31.5 51t37 61.5t23.5 50.5q121 317 182 455q-20 82 -54 176t-59 154l-82 176l-73 160q-12 27 14.5 39t38.5 -15q20 -47 66 -145l73 -158q25 -57 58.5 -142t54.5 -159l96 205q23 45 127 213q78 125 107 209q6 22 23 22q6 0 13 -3 q20 -6 20 -23q0 -6 -3 -13q-31 -92 -111 -223q-102 -164 -123 -207q-63 -125 -127 -272q10 -49 19 -98q2 -12 -5 -21.5t-19.5 -11.5t-21.5 5t-11 19l-3 13l-147 -375q-10 -29 -25.5 -56.5t-41 -67.5t-29.5 -48q-48 -79 -48 -134q0 -8 1 -16q2 -12 -6.5 -21t-19.5 -11h-4 q-9 0 -17 6q-9 8 -11 18z" />
<glyph unicode="z" horiz-adv-x="946" d="M4 917q0 9 6 16q8 9 19 11q61 6 175.5 6t170.5 6q4 0 48 7.5t75 9.5q22 2 40 2t31 -2q20 -2 33 -10q20 -12 23 -35q1 -6 1 -12q0 -52 -46 -138q-37 -72 -111 -178q-29 -45 -80 -117l-82 -116q-33 -45 -47 -72l-92 -186l-55 -115l-2 -6l41 6l200 29l340 49q12 2 21.5 -5.5 t11.5 -19.5v-5q0 -8 -5 -16q-7 -10 -20 -12l-340 -49l-200 -28q-43 -6 -68 -9q-12 -2 -18 -2h-8h-5q-6 0 -12 4q-12 8 -14 21v8q0 2 2 4q0 4 2 6q0 4 4 13l18 36l56 115l94 186q14 31 47 78l86 123l78 111q72 106 106 174q29 53 39 110h-6q-20 4 -59 0q-29 -2 -70 -8 q-47 -8 -53 -8q-55 -6 -174 -6q-113 0 -168 -6q-11 -2 -21 6q-12 10 -12 24z" />
<glyph unicode="{" horiz-adv-x="679" d="M-29 524q-2 16 4 27q8 18 29 20q8 0 19 -2q10 -4 12 -4q33 -4 63 31q35 39 54 129q6 27 12 80q8 53 12 74.5t23 142.5q14 109 30 176q57 227 189 258q10 2 20.5 -4t13.5 -17.5t-3.5 -21.5t-18.5 -14q-96 -23 -145 -215q-14 -63 -31 -170q-16 -121 -21 -146 q-4 -20 -12 -71q-10 -59 -14 -82q-20 -106 -64 -156q-33 -37 -69 -47q70 -63 82 -141q10 -74 8 -236q-2 -158 8 -229q16 -115 70 -180q66 -76 192 -99q12 -2 19.5 -12t5.5 -21.5t-12.5 -18.5t-20.5 -5q-150 27 -227 121q-63 76 -82 207q-12 78 -11 239q2 156 -8 225 q-8 57 -63 107q-2 2 -25 10q-37 14 -39 45z" />
<glyph unicode="|" horiz-adv-x="417" d="M104 82q0 74 15 199q16 139 18 196q8 182 -2 459q-14 401 -14 461q0 29 28.5 29t28.5 -29q0 -55 15 -459q10 -279 2 -465q-2 -59 -19 -199q-14 -125 -14 -192q0 -29 -29 -29t-29 29z" />
<glyph unicode="}" horiz-adv-x="614" d="M-10 -316.5q-2 11.5 6 20.5t20 11q119 12 170 76q45 51 52 150q4 45 -9 200q-10 137 0 207q6 35 23.5 76t44.5 63l6 5l6 4l-14 8q-27 12 -45 24q-29 16 -39 35q-27 43 -25 144q0 29 4.5 75.5t4.5 59.5q2 43 8 128t7 127t-13.5 104.5t-46.5 113.5l-7 12l-32 49 q-10 14 -30 31.5t-44 26.5q-27 10 -17 36.5t37 16.5q14 -4 26.5 -12.5t22 -13.5t20.5 -17t16 -16.5t16.5 -20.5t13.5 -18.5t14 -20.5l13 -20q37 -59 53 -131t15 -119t-8 -135.5t-7 -120.5q0 -16 -4 -63.5t-4 -73.5q-2 -82 16 -113q4 -4 21 -14q14 -10 38 -23l39 -14l13 -6 q2 -2 4 -3h2q2 -2 4 -2l4 -4q4 -4 6 -12q6 -14 -2 -27q-4 -6 -10 -12q-8 -8 -21 -16q-8 -6 -18 -13l-6 -4q-37 -33 -47 -102q-10 -63 0 -195q12 -154 8 -208q-8 -117 -64 -185q-68 -80 -211 -94q-10 -2 -19 6t-11 19.5z" />
<glyph unicode="~" horiz-adv-x="1177" d="M29 373q96 170 190 209q80 31 172 -25q25 -16 72 -51t69 -49q74 -49 136 -33q109 27 235 217q16 23 40 7.5t9 -40.5q-139 -209 -272 -241q-84 -20 -178 41q-25 16 -74 53q-47 35 -68 47q-68 41 -120 20q-76 -31 -162 -184q-14 -25 -38.5 -10.5t-10.5 39.5z" />
<glyph unicode="&#xad;" d="M24.5 551q0.5 29 28.5 29q238 0 465 -52q12 -4 18.5 -13t3.5 -21.5t-12.5 -18.5t-21.5 -4q-223 51 -453 51q-29 0 -28.5 29z" />
<glyph unicode="&#xe8;" horiz-adv-x="942" d="M14 508q16 156 72.5 279.5t153.5 173.5q84 41 190 -25q86 -53 166 -162q74 -100 109 -194q16 -49 18 -84q0 -47 -27 -70q-6 -4 -16 -6q-4 -2 -8 -2h-21q-25 0 -67 2q-61 2 -197 10q-299 19 -319 19q-6 -129 18.5 -238t71.5 -164q37 -39 99 -59.5t132 -14t126 36t83 78.5 q12 25 38 11.5t11 -40.5q-33 -63 -102.5 -100t-151.5 -43q-80 -6 -155.5 17.5t-120.5 76.5q-66 72 -91.5 210t-11.5 288zM72 506q23 -2 319 -19q174 -10 195 -10q43 -2 65 -2h11q4 6 4 19q-2 27 -17 67q-31 86 -98 178q-74 100 -150 148q-80 49 -137 20q-76 -37 -126 -146.5 t-66 -254.5zM141 1307q-14 25 9.5 40t39.5 -8q41 -59 164 -120q4 -4 27 -15l33 -16l28 -14q18 -10 29 -19l29 -16q14 -10 26 -21l25 -22q20 -20 -0.5 -41t-40.5 0q-10 10 -20.5 19t-24.5 20l-23 12q-8 6 -28.5 16.5t-26.5 14.5t-31 16l-28 14q-135 68 -187 140z" />
<glyph unicode="&#xe9;" horiz-adv-x="942" d="M14 508q16 156 72.5 279.5t153.5 173.5q84 41 190 -25q86 -53 166 -162q74 -100 109 -194q16 -49 18 -84q0 -47 -27 -70q-6 -4 -16 -6q-4 -2 -8 -2h-21q-25 0 -67 2q-61 2 -197 10q-299 19 -319 19q-6 -129 18.5 -238t71.5 -164q37 -39 99 -59.5t132 -14t126 36t83 78.5 q12 25 38 11.5t11 -40.5q-33 -63 -102.5 -100t-151.5 -43q-80 -6 -155.5 17.5t-120.5 76.5q-66 72 -91.5 210t-11.5 288zM72 506q23 -2 319 -19q174 -10 195 -10q43 -2 65 -2h11q4 6 4 19q-2 27 -17 67q-31 86 -98 178q-74 100 -150 148q-80 49 -137 20q-76 -37 -126 -146.5 t-66 -254.5zM166 1167.5q-14 24.5 10 38.5q158 96 305 146q27 10 36.5 -18t-19.5 -36q-139 -47 -293 -141q-25 -14 -39 10.5z" />
<glyph unicode="&#x2000;" horiz-adv-x="923" />
<glyph unicode="&#x2001;" horiz-adv-x="1847" />
<glyph unicode="&#x2002;" horiz-adv-x="923" />
<glyph unicode="&#x2003;" horiz-adv-x="1847" />
<glyph unicode="&#x2004;" horiz-adv-x="615" />
<glyph unicode="&#x2005;" horiz-adv-x="461" />
<glyph unicode="&#x2006;" horiz-adv-x="307" />
<glyph unicode="&#x2007;" horiz-adv-x="307" />
<glyph unicode="&#x2008;" horiz-adv-x="230" />
<glyph unicode="&#x2009;" horiz-adv-x="369" />
<glyph unicode="&#x200a;" horiz-adv-x="102" />
<glyph unicode="&#x2010;" d="M24.5 551q0.5 29 28.5 29q238 0 465 -52q12 -4 18.5 -13t3.5 -21.5t-12.5 -18.5t-21.5 -4q-223 51 -453 51q-29 0 -28.5 29z" />
<glyph unicode="&#x2011;" d="M24.5 551q0.5 29 28.5 29q238 0 465 -52q12 -4 18.5 -13t3.5 -21.5t-12.5 -18.5t-21.5 -4q-223 51 -453 51q-29 0 -28.5 29z" />
<glyph unicode="&#x2012;" d="M24.5 551q0.5 29 28.5 29q238 0 465 -52q12 -4 18.5 -13t3.5 -21.5t-12.5 -18.5t-21.5 -4q-223 51 -453 51q-29 0 -28.5 29z" />
<glyph unicode="&#x2013;" horiz-adv-x="1267" d="M24 551q1 29 57 29q471 0 922 -52q23 -4 36 -13t7 -21.5t-24.5 -18.5t-42.5 -4q-442 51 -898 51q-58 0 -57 29z" />
<glyph unicode="&#x2014;" horiz-adv-x="2291" d="M24 551q2 29 113 29q944 0 1844 -52q48 -4 73.5 -13t13.5 -21.5t-49.5 -18.5t-85.5 -4q-884 51 -1796 51q-115 0 -113 29z" />
<glyph unicode="&#x2018;" horiz-adv-x="542" d="M117 1133l43 84q35 66 55 110q59 129 49 178q-2 12 5 22.5t18.5 12.5t22 -5t12.5 -17q12 -70 -54 -213l-55 -113l-43 -84q-12 -27 -39 -14.5t-14 39.5z" />
<glyph unicode="&#x2019;" horiz-adv-x="563" d="M204.5 1014q-14.5 24 10.5 39q53 31 64.5 84t3.5 178q-8 127 -29 168q-12 27 14.5 39t38.5 -15q23 -51 33 -190q8 -131 -4 -193q-16 -78 -92 -120q-25 -14 -39.5 10z" />
<glyph unicode="&#x201c;" horiz-adv-x="735" d="M45 1571q-10 27 17.5 36t35.5 -20q23 -68 66 -254q39 -166 69 -248q10 -27 -16.5 -37t-36.5 17q-37 96 -74 256q-45 197 -61 250zM297 1589q-14 25 11.5 38.5t37.5 -13.5q27 -49 43 -131q20 -98 27 -121q49 -145 94 -229q14 -27 -11.5 -40.5t-37.5 11.5q-47 90 -99 237 q-10 29 -30 132q-14 74 -35 116z" />
<glyph unicode="&#x201d;" horiz-adv-x="872" d="M156 1112q6 29 12 88q4 63 10 96q6 25 37 105q25 59 25 88q0 4 -2 10q0 2 -2 6q0 2 -3 4q-2 6 -4 11q-2 12 4.5 22t17.5 13.5t21.5 -3t14.5 -16.5q0 -4 2 -8l2 -10q6 -16 6 -29q-2 -39 -29 -111q-29 -74 -32 -94q-6 -29 -13 -88q-4 -63 -10 -96q-4 -12 -13.5 -18.5 t-21.5 -3.5t-18 12.5t-4 21.5zM401 1137q66 254 199 415q18 23 40.5 5t4.5 -41q-127 -150 -186 -392q-4 -12 -14.5 -18t-21.5 -3t-17.5 13t-4.5 21z" />
<glyph unicode="&#x202f;" horiz-adv-x="369" />
<glyph unicode="&#x205f;" horiz-adv-x="461" />
<glyph unicode="&#x25fc;" horiz-adv-x="1044" d="M0 0v1044h1044v-1044h-1044z" />
</font>
</defs>
</svg>
