<?xml version="1.0" encoding="utf-8"?>
<!-- Generator: Adobe Illustrator 19.1.1, SVG Export Plug-In . SVG Version: 6.00 Build 0)  -->
<svg version="1.1" id="Calque_1" xmlns="http://www.w3.org/2000/svg" xmlns:xlink="http://www.w3.org/1999/xlink" x="0px" y="0px"
	 viewBox="0 0 40 40" style="enable-background:new 0 0 40 40;" xml:space="preserve">
<style type="text/css">
	.st0{fill:#FFFFFF;}
</style>
<g id="IconContact">
	<path class="st0" d="M0.3,28.7C0.1,28.3,0,27.9,0,27.5v-25c0-0.4,0.1-0.8,0.3-1.2L13.9,15L0.3,28.7z M2.5,0L2.5,0h35h0L20,17.6
		L2.5,0z M18.5,19.6c0.2,0.2,0.4,0.3,0.6,0.4c0.2,0.1,0.5,0.1,0.6,0.1H20c0.7,0,1.2-0.1,1.5-0.5l2.8-2.8L37.5,30h0
		c0,0.1,0,0.2,0,0.2c0,0.1,0,0.1,0,0.2c0,0.1-0.1,0.2-0.1,0.3c0,0.1-0.1,0.2-0.2,0.3c-0.1,0.1-0.2,0.3-0.3,0.4l-9.5,8.1
		c-0.2,0.2-0.6,0.3-1.1,0.3c-0.5,0-1.1,0-1.6-0.1c-0.6-0.1-1.1-0.4-1.5-0.7c-0.4-0.4-0.7-0.8-0.7-1.3V35H15c-0.7,0-1.3-0.2-1.8-0.7
		c-0.5-0.5-0.7-1.1-0.7-1.8V30h-10h0l13.2-13.2L18.5,19.6z M17.5,32.5H25v3.2c0.7,0.7,1.2,0.8,1.7,0.3l5.8-5
		c0.3-0.3,0.4-0.6,0.4-0.9c0-0.4-0.1-0.7-0.4-0.9l-5.8-5c-0.4-0.4-1-0.3-1.7,0.3v3.2h-7.5c-0.7,0-1.3,0.2-1.8,0.7
		C15.2,28.7,15,29.3,15,30c0,0.7,0.2,1.3,0.7,1.8C16.2,32.3,16.8,32.5,17.5,32.5z M39.7,28.7L26.1,15L39.7,1.4
		C39.9,1.8,40,2.1,40,2.5v25C40,27.9,39.9,28.3,39.7,28.7z"/>
</g>
</svg>
