<?xml version="1.0" encoding="utf-8"?>
<!-- Generator: Adobe Illustrator 19.1.1, SVG Export Plug-In . SVG Version: 6.00 Build 0)  -->
<svg version="1.1" id="Calque_1" xmlns="http://www.w3.org/2000/svg" xmlns:xlink="http://www.w3.org/1999/xlink" x="0px" y="0px"
	 viewBox="0 0 42.9 39.9" style="enable-background:new 0 0 42.9 39.9;" xml:space="preserve">
<style type="text/css">
	.st0{clip-path:url(#SVGID_2_);fill:#FFFFFF;}
	.st1{fill:#FFFFFF;}
</style>
<g>
	<g>
		<defs>
			<rect id="SVGID_1_" width="42.9" height="40"/>
		</defs>
		<clipPath id="SVGID_2_">
			<use xlink:href="#SVGID_1_"  style="overflow:visible;"/>
		</clipPath>
		<path class="st0" d="M42.1,18l-6.5-6.5V4c0-1.4-1.1-2.5-2.5-2.5c-1.4,0-2.5,1.1-2.5,2.5v2.6l-4.8-4.8c-2.4-2.4-6.5-2.4-8.9,0
			L0.7,18c-1,1-1,2.5,0,3.5c1,1,2.5,1,3.5,0L20.4,5.3c0.5-0.5,1.5-0.5,2,0l16.2,16.2c0.5,0.5,1.1,0.7,1.7,0.7c0.6,0,1.3-0.2,1.7-0.7
			C43.1,20.5,43.1,19,42.1,18L42.1,18z M42.1,18"/>
	</g>
	<path class="st1" d="M22.3,9.9c-0.5-0.5-1.2-0.5-1.7,0L6.3,24.2c-0.2,0.2-0.4,0.5-0.4,0.9v10.4c0,2.4,2,4.4,4.4,4.4h7.1v-11h8v11
		h7.1c2.4,0,4.4-2,4.4-4.4V25.1c0-0.3-0.1-0.6-0.4-0.9L22.3,9.9z M22.3,9.9"/>
</g>
</svg>
