<?xml version="1.0" encoding="utf-8"?>
<!-- Generator: Adobe Illustrator 19.1.1, SVG Export Plug-In . SVG Version: 6.00 Build 0)  -->
<svg version="1.1" id="Calque_1" xmlns="http://www.w3.org/2000/svg" xmlns:xlink="http://www.w3.org/1999/xlink" x="0px" y="0px"
	 viewBox="0 0 230 230" style="enable-background:new 0 0 230 230;" xml:space="preserve">
<style type="text/css">
	.st0{display:none;fill:none;}
	.st1{display:none;}
	.st2{display:inline;fill:#423E3B;}
	.st3{display:inline;fill:#C8C6C5;}
	.st4{display:inline;fill:#E3E1E1;}
	.st5{fill:#DBDBDB;}
	.st6{fill:#A8A8A8;}
</style>
<g id="Logo">
	<g id="Extras">
		<path id="Ground" class="st0" d="M141.5,132.7c3.6,4.1,15,0.8,21.2,4.6c10.4,6.3,38.2,8.6,37.1,13c-1.5,6.3-21.2,13.4-28.9,15.4
			c-24.7,6.5-18.8,15.3-50.5,15c-48.4-0.6-26.6-16.4-73.8-22.3c-7.8-0.9-11.1-3.8-11.2-6.9c-0.3-10.6,24.1-12.7,24.7-12.8
			c8.4-0.8,10.7-1.4,14.8-3.2c3.8-1.7,21.4-5.5,21.3-5.5C116.6,127.5,134.6,129.7,141.5,132.7z"/>
		<g id="Colors" class="st1">
			<rect id="Brown" y="0" class="st2" width="15.8" height="15.9"/>
			<rect id="Dark_grey" y="19.6" class="st3" width="15.8" height="15.9"/>
			<rect id="Light_grey" y="39.9" class="st4" width="15.8" height="15.9"/>
		</g>
		<g id="Txt_bck">
			<g id="Sur_Un_Baobab_1_">
				<path class="st5" d="M11.7,162.1c-0.8-0.5-1.5-0.8-2.3-1c-0.8-0.2-1.6,0-2.4,0.3c-0.9,0.5-1.5,1.7-1.8,3.7
					c0,0.3-0.2,1.6-0.4,3.8c-0.1,0.9-0.1,1.7,0.1,2.5c0.1,0.8,0.3,1.5,0.7,2.2c0.3,0.7,0.6,1.3,0.9,1.7c0.3,0.5,0.7,1,1.2,1.7
					l1.2,1.7c0.3,0.3,0.6,0.9,1,1.6c0.4,0.7,0.7,1.4,0.9,2.1c0.2,0.7,0.3,1.4,0.3,2.3c0,0,0,0.2,0.1,0.8c0,0.5,0,0.8,0,0.9
					s0,0.3,0,0.6c0,0.3,0,0.6-0.1,0.8c-0.3,1.1-0.8,2-1.7,2.5c-0.7,0.5-1.8,0.8-3.1,0.9c0,0-0.1,0-0.3,0c-0.2,0-0.3,0-0.4,0
					c-0.1,0-0.2,0-0.3,0h0c-0.4-0.2-0.6-0.7-0.6-1.5c-0.1-0.9,0-1.6,0.2-2.1c0.1-0.2,0.2-0.4,0.1-0.6c0-0.2-0.2-0.3-0.4-0.4
					c-0.2-0.1-0.4-0.2-0.6-0.1c-0.2,0-0.3,0.2-0.4,0.4C3.2,188,3,189,3.1,190.2c0.2,1.4,0.7,2.4,1.6,2.7c0.2,0.1,0.3,0.1,0.5,0.1
					c0.2,0,0.3,0,0.4,0c0.1,0,0.2,0,0.4,0c0.1,0,0.2,0,0.3,0c1.6-0.1,2.9-0.5,3.8-1.1c1.2-0.7,2-1.9,2.4-3.4c0-0.2,0.1-0.5,0.1-0.7
					c0-0.3,0-0.5,0-0.8c0-0.3,0-0.5,0-0.7c0-0.2,0-0.4-0.1-0.7c0-0.3,0-0.5,0-0.6c0-0.9-0.2-1.8-0.4-2.6c-0.2-0.8-0.6-1.6-1-2.4
					c-0.5-0.8-0.8-1.3-1-1.7c-0.2-0.3-0.7-0.9-1.3-1.7c-0.6-0.9-1.1-1.6-1.5-2.2c-0.3-0.6-0.6-1.3-0.9-2.2c-0.3-0.9-0.3-1.9-0.3-2.8
					c0.2-2.3,0.3-3.5,0.4-3.7c0.3-1.5,0.6-2.4,1.2-2.7c0.4-0.2,0.8-0.3,1.4-0.2c0.6,0.1,1.2,0.4,1.8,0.8c0.6,0.4,1.1,0.8,1.4,1.4
					c0.3,0.5,0.5,0.9,0.4,1.3c0,0.2,0,0.4,0.1,0.5c0.1,0.2,0.3,0.3,0.5,0.3c0.2,0,0.4,0,0.5-0.1c0.2-0.1,0.2-0.3,0.3-0.5
					c0.1-0.8-0.1-1.6-0.6-2.3C13.1,163.2,12.5,162.6,11.7,162.1z"/>
				<path class="st5" d="M30,194.8c-0.1,0-0.2,0-0.3,0c-0.2,0-0.2,0-0.2,0c0,0-0.1,0-0.1,0v0c0-0.1-0.1-0.4,0-1.2
					c0-1,0.1-1.5,0.1-1.6c-0.3-4.1-0.4-7.3-0.3-9.6c0-0.3,0-0.6,0.1-1c0,0,0-0.2,0.1-0.5c0-0.3,0.1-0.5,0.1-0.6c0.2-1,0.2-1.8,0-2.4
					v0c0,0,0,0,0,0l0-0.2l-0.2-0.2c-0.1-0.1-0.1-0.1-0.2-0.2c-0.3-0.1-0.6,0-0.8,0.3c-0.1,0-0.1,0.1-0.2,0.2c0,0.1,0,0.2,0,0.3v0.2
					l0,0.1v0c0,0.2,0,0.4,0,0.8c0,0.3,0,0.6-0.1,0.9c0,0.3,0,0.6-0.1,1.2c0,0.5-0.1,1-0.1,1.4c0,0.4-0.1,0.8-0.2,1.1
					c-0.1,0.6-0.2,1.7-0.3,3.1c-0.2,1.3-0.3,2.4-0.4,3c-0.4,2.2-1.4,3.6-2.8,4.4c-0.2,0.1-0.3,0.2-0.5,0.2c-0.2,0.1-0.3,0.2-0.3,0.2
					l-0.3,0.1c-0.1,0-0.2,0-0.3,0c-0.5,0-0.9-0.5-1.2-1.5c-0.3-1-0.5-2.5-0.5-4.4c0-1.5,0-3.1,0.2-4.7c0.2-1.6,0.3-2.8,0.5-3.6
					c0-0.2,0-0.3-0.1-0.5c-0.1-0.2-0.3-0.3-0.4-0.3c-0.2,0-0.3,0-0.5,0.1c-0.2,0.1-0.3,0.3-0.3,0.5c-0.2,0.8-0.3,2.1-0.5,3.8
					c-0.2,1.6-0.2,3.3-0.2,4.8c0,2.1,0.2,3.7,0.6,4.9c0.5,1.6,1.3,2.4,2.4,2.4c0,0,0.1,0,0.1,0c0.2,0,0.5,0,0.6-0.1
					c0.2-0.1,0.3-0.1,0.5-0.2c0.1,0,0.2-0.1,0.4-0.2c0.2-0.1,0.3-0.2,0.4-0.2c1.7-0.9,2.9-2.5,3.5-4.7l0.1,1.1c0,0.1,0,1.1-0.1,1.5
					c-0.1,0.9,0,1.5,0.2,1.9c0.1,0.2,0.2,0.3,0.3,0.4s0.3,0.2,0.4,0.3c0.2,0.1,0.3,0.1,0.4,0.1c0.1,0,0.2,0,0.3,0.1l0.2,0
					c0.2,0,0.4,0,0.5-0.1c0.2-0.1,0.3-0.3,0.3-0.4c0-0.2,0-0.3-0.1-0.5C30.3,194.9,30.2,194.8,30,194.8z"/>
				<path class="st5" d="M43.2,174.2c-0.2-0.1-0.3-0.2-0.5-0.1c-1.4,0.2-2.4,0.5-2.9,1c-1.1,0.9-1.7,2.7-1.8,5.2c0,0.5,0,1,0,1.6
					c-0.2-0.7-0.3-1.3-0.3-1.3c-0.1-0.3-0.2-1.3-0.3-3c-0.1-1.4-0.3-2.5-0.7-3.2l0,0c-0.2-0.4-0.5-0.5-0.9-0.3
					c-0.2,0.1-0.3,0.2-0.4,0.4c-0.1,0.2,0,0.3,0,0.5c0.3,0.6,0.5,1.5,0.6,2.7c0.2,1.7,0.2,2.8,0.3,3.2c0,0.1,0.1,0.5,0.5,2.3
					c0.2,1,0.4,1.7,0.5,2.3c0,0.1,0.1,0.7,0.3,3.2c0.1,0.8,0.1,1.5,0.2,2c0,0.3,0,0.5,0.1,0.7c0,0.1,0,0.2,0,0.2v0
					c0,0.1,0,0.2,0.1,0.2c0,0.1,0.1,0.1,0.1,0.2c0.1,0.1,0.2,0.2,0.5,0.2c0,0,0.1,0,0.1,0c0.2,0,0.4-0.1,0.5-0.3
					c0.1-0.1,0.1-0.2,0.2-0.3c0-0.1,0-0.2,0-0.2v0v-0.3c0-0.2,0-0.4,0.1-0.4v0c0-0.1,0-0.1,0-0.2v-0.2c0-0.2,0-0.3,0-0.6
					c0.1-1.2,0.1-2.6,0-4.1c0,0,0-0.3-0.1-1.5c-0.1-0.9-0.1-1.5-0.1-1.8c0-0.3,0-0.9,0-1.9c0.2-2.2,0.6-3.6,1.4-4.3
					c0.3-0.3,1.1-0.5,2.2-0.7c0.2,0,0.3-0.1,0.5-0.3c0.1-0.2,0.2-0.3,0.1-0.5C43.4,174.5,43.3,174.3,43.2,174.2z"/>
				<path class="st5" d="M73.1,172c0-0.2-0.1-0.6-0.8-0.6c-0.7,0-0.8,0.5-0.8,0.6c0,1.1,0.1,3.1,0.2,6c0.1,2.8,0.2,5.3,0.1,7.3
					c-0.1,1.9-0.3,3.9-0.8,5.8c-0.3,1.6-0.9,2.7-1.6,3.5c-1,1-2.2,1.3-3.9,0.8c-0.8-0.2-1.5-1-2-2.2c-0.3-0.8-0.5-1.9-0.7-3.3
					c-0.4-3.4-0.3-8,0.3-13.7c0-0.3,0.2-1.1,0.3-2.2c0.2-0.9,0.3-1.7,0.3-2.3c0-0.2-0.1-0.6-0.8-0.6c-0.7,0-0.8,0.5-0.8,0.6
					c0,0.5-0.1,1.3-0.2,2.1c-0.2,1.1-0.4,1.9-0.4,2.2c-0.6,5.8-0.7,10.5-0.3,13.9c0.2,1.5,0.5,2.7,0.7,3.5c0.6,1.6,1.6,2.7,2.9,3
					c0.7,0.2,1.4,0.3,2,0.3c1.4,0,2.6-0.5,3.5-1.5c0.9-0.9,1.6-2.4,2-4.1c0.4-1.9,0.7-3.9,0.8-6c0.1-2.1,0.1-4.5-0.1-7.4
					C73.1,175,73.1,173,73.1,172z"/>
				<path class="st5" d="M88.2,183.8c-0.3-0.5-0.6-0.9-1-1.2c-0.5-0.4-1.1-0.6-1.7-0.5c-1,0.1-2,0.7-2.9,1.9c-0.6,0.8-1.3,2-1.9,3.4
					c-0.3,0.8-0.7,1.7-1.1,2.7c-0.2-3.9-0.2-6.3-0.2-6.8c0-0.2-0.1-0.6-0.8-0.6c-0.7,0-0.8,0.5-0.8,0.6c0,1.3,0,3.2,0.2,5.7
					c0.1,2.5,0.2,4.4,0.2,5.6c-0.2,0.6-0.3,1.2-0.5,1.7c-0.2,0.5-0.2,1-0.3,1.4v0.5v0c0,0.1,0.1,0.2,0.2,0.3
					c0.1,0.2,0.3,0.3,0.6,0.4c0.3,0,0.6,0,0.8-0.2c0.1-0.1,0.2-0.2,0.2-0.2c0.1-0.1,0.1-0.2,0.2-0.3c0.1-0.3,0.2-0.6,0.2-1
					c0.2-0.8,0.2-1.6,0.2-2.4c0.1-0.2,0.2-0.4,0.2-0.6c0-0.1,0.2-0.6,0.4-1.4s0.5-1.7,0.8-2.5s0.6-1.6,0.9-2.3
					c0.6-1.3,1.2-2.4,1.8-3.2c0.6-0.8,1.2-1.3,1.8-1.3c0.2,0,0.3,0,0.5,0.2c0.2,0.2,0.5,0.5,0.7,0.8c0.4,0.7,0.6,1.4,0.7,1.9
					c0,0.6,0.1,1.1,0.1,1.8s0,1.2,0,1.6c0,0.4-0.1,1.1-0.2,1.9c-0.1,0.8-0.1,1.4-0.2,1.7c0,0.6,0,1.6,0.1,3c0.1,1.4,0.2,2.3,0.2,2.8
					c0,0.2,0.1,0.6,0.8,0.6c0.7,0,0.8-0.5,0.8-0.6c0-0.5,0-1.5-0.2-2.9c-0.1-1.2-0.2-2.1-0.1-2.8c0-0.4,0.1-1,0.1-1.7
					c0.1-0.8,0.2-1.4,0.2-1.9c0-0.5,0-1,0-1.7s0-1.3-0.1-1.9C89,185.4,88.7,184.6,88.2,183.8z"/>
				<path class="st5" d="M122.5,174.3H122c-1.4,0-2.8,0.4-4.2,1.2c0.1-0.8,0.4-2.3,0.9-4.5v-2.2v-0.1c-1.2-3.9-3.2-5.9-5.9-5.9
					c-4.1,0-6.3,3.5-6.8,10.4v4.9c2.4,16.4,4,18.3,5,18.3h0l1.1-0.5v-0.2c-1.4-10.7-2.5-20.2-3-28.3c0-1.3,1.1-2.1,3.3-2.5h1.7
					c2,1.3,2.9,2.7,2.9,4.3v0.9c0,2.9-1.5,5.8-4.3,8.7l0,0v1.7l0.3-0.2c4.8-2.9,8-4.4,9.6-4.4c0.2,0,0.3,0.1,0.3,0.3v0.2h0.2
					c4,0,7.1,2.6,9,7.8v1.7c-1.7,4.9-5.8,7.3-12.1,7.3h-2.6c-1.2,0-2.6-0.7-4.3-2.2l0,0h-0.7v1.1l0,0c1.4,2.1,3.7,3.2,6.7,3.2l0,0
					l2.6-0.5c5.9,0,10.2-3.2,12.5-9.4v-0.1c0-1.3-0.3-2.5-0.9-3.6C129.7,176.9,126.1,174.3,122.5,174.3z M108.7,184.2v0.3h-0.1
					c-0.6-4.1-0.8-7-0.8-8.7v-4.3h0.1L108.7,184.2z"/>
				<path class="st5" d="M158.1,197.1c-2.3-1.5-4-3.3-4.9-5.4c-2.1-9.7-2.8-9.7-3.1-9.7h-0.5v0.2c0,0.2-0.1,0.6-0.3,1l0,0.1l0,0.1
					c0.5,1.4,0.7,2.6,0.7,3.6c0,5.1-1.5,7.9-4.6,8.7c-2.3-0.3-3.5-1-3.5-2.1c0-4.9,1.7-8.2,4.9-9.8l1.4,0.3h0.6v-0.6l0,0
					c-0.4-0.8-0.8-1.2-1.3-1.2h-1.1h-0.1c-4,1.9-5.9,5.4-5.9,10.5c0,2.7,1.5,4.1,4.6,4.3c1.8,0,3.4-0.9,4.9-2.7l0,0v0
					c0.8-3,1.2-4.1,1.5-4.4c0.2,3,2.3,5.8,6.3,8.6l0,0h1.1c0.6,0,0.9-0.3,0.9-0.9v-0.9h-0.2C159,196.7,158.5,196.8,158.1,197.1z"/>
				<path class="st5" d="M169.7,178c-1.4-0.9-3.2-1.3-5.1-1c-0.9,0.2-1.9,0.9-3,2.3c-1.1,1.4-1.8,2.8-2.1,4c-0.3,1.1-0.3,2.5-0.1,4
					c0.2,1.5,0.6,2.9,1.2,4.1c0.7,1.4,1.7,2.3,2.8,2.8c0.6,0.3,1.2,0.4,1.8,0.4c0.3,0,0.6,0,1-0.1c1,0.1,2-0.3,2.9-1.1
					c0.9-0.7,1.6-1.8,2.3-3.2c0.6-1.3,1.1-2.6,1.4-4c0.3-1.4,0.4-2.5,0.2-3.5C172.6,180.9,171.6,179.3,169.7,178z M165.3,193.2
					c-0.5,0-0.9-0.1-1.4-0.3c-0.8-0.3-1.5-1.1-2.1-2.2c-0.5-1-0.9-2.2-1.1-3.6c-0.2-1.4-0.2-2.6,0.1-3.6c0.2-1,0.8-2.2,1.8-3.5
					c0.9-1.1,1.6-1.7,2.2-1.8c0.4-0.1,0.8-0.1,1.2-0.1c1.1,0,2.1,0.3,3,0.9c1.5,1.1,2.4,2.4,2.6,3.9c0.1,0.8,0,1.8-0.2,3
					c-0.3,1.3-0.7,2.5-1.2,3.6c-0.6,1.3-1.3,2.2-2,2.8c-0.2,0.1-0.3,0.2-0.5,0.3c-0.2-0.1-0.3-0.1-0.5,0c-0.4,0.2-0.8,0.3-1.1,0.4
					l-0.2-0.1C165.6,193,165.4,193.1,165.3,193.2z"/>
				<path class="st5" d="M181.9,179c-0.7-0.3-1.4-0.5-2.1-0.5l0.2-1.3c0.2-1,0.2-1.9,0.3-2.5c0-0.8,0-2.1,0-3.8
					c-0.1-1.6-0.1-2.8,0-3.6c0-0.3,0-0.8,0.1-1.4c0.1-0.6,0.2-1.1,0.2-1.5c0-0.4,0-0.9,0-1.6l0,0c0-0.2-0.2-0.4-0.3-0.5
					c-0.2-0.1-0.4-0.2-0.6-0.2c-0.2,0-0.4,0.2-0.5,0.3c-0.1,0.2-0.2,0.4-0.2,0.6c0,0.6,0.1,1,0,1.3s-0.1,0.7-0.2,1.3
					c-0.1,0.6-0.1,1.1-0.2,1.5c0,0.9,0,2.2,0,3.8c0,1.6,0.1,2.9,0,3.7c0,0.6-0.1,1.4-0.2,2.3c0,0.2-0.1,0.3-0.1,0.6
					c0,0.3-0.1,0.6-0.1,0.8l-0.1,0.6c-0.1,0.1-0.2,0.2-0.3,0.2c-0.4,0.3-0.4,0.7-0.1,1.1c0.1,0.1,0.2,0.2,0.3,0.2
					c-0.1,1.3-0.2,3.9-0.2,7.9c0,1.8,0,3.2,0,4.2c0,1.1,0.1,1.9,0.1,2.5c0,0.4,0.1,0.7,0.1,0.9c0,0.2,0.1,0.3,0.1,0.4
					c0.1,0.2,0.2,0.4,0.3,0.5c0.3,0.2,0.6,0.3,1.1,0.4l0.7,0.1c0.5,0.1,0.9,0.2,1.4,0.2c1.2,0,2.3-0.3,3.2-1c1.4-0.9,2.3-2.3,2.9-4
					c1.2-3.7,0.2-7.5-3.1-11.3C183.8,180.3,182.9,179.5,181.9,179z M186.4,192.2c-0.5,1.4-1.2,2.4-2.3,3.2c-1,0.7-2.2,0.9-3.5,0.6h0
					c0,0-0.1,0-0.9-0.1c0,0,0,0-0.2,0c0-0.2-0.1-0.4-0.1-0.7c0-0.6-0.1-1.5-0.1-2.5c0-1,0-2.4,0-4.2c0-4.2,0.1-7.1,0.2-8.4
					c0.5-0.1,1,0,1.6,0.3c0.8,0.4,1.7,1.1,2.4,2C186.5,185.7,187.5,189,186.4,192.2z"/>
				<path class="st5" d="M213.9,197.1c-2.3-1.5-4-3.3-4.9-5.4c-2.1-9.7-2.8-9.7-3.1-9.7h-0.5v0.2c0,0.2-0.1,0.6-0.3,1l0,0.1l0,0.1
					c0.5,1.4,0.7,2.6,0.7,3.6c0,5.1-1.5,7.9-4.6,8.7c-2.3-0.3-3.5-1-3.5-2.1c0-4.9,1.7-8.2,4.9-9.8l1.4,0.3h0.6v-0.6l0,0
					c-0.4-0.8-0.8-1.2-1.3-1.2h-1.1h-0.1c-4,1.9-5.9,5.4-5.9,10.5c0,2.7,1.5,4.1,4.6,4.3c1.8,0,3.4-0.9,4.9-2.7l0,0v0
					c0.8-3,1.2-4.1,1.5-4.4c0.2,3,2.3,5.8,6.3,8.6l0,0h1.1c0.6,0,0.9-0.3,0.9-0.9v-0.9h-0.2C214.8,196.7,214.3,196.8,213.9,197.1z"
					/>
				<path class="st5" d="M226.2,187.3L226.2,187.3c-2.7,0-4.9,2.2-6.6,6.5h-0.1v-19.2l0.4-2.2l-1-0.5h-1V183
					c0,7.3-0.3,14.5-0.8,21.5v0.2h1.6v-0.8l1.8,0.4h2c3.9,0,6.4-4,7.4-12v-0.8C230,189.3,228.7,187.9,226.2,187.3z M228.3,192
					c-0.9,7.1-3,10.7-6.2,10.7h-1.2c-0.5,0-1-0.1-1.4-0.3c0-5.8,1.7-10.3,5.1-13.1h2.3C227.5,189.3,228,190.2,228.3,192z"/>
			</g>
			<g id="animation_workshop">
				<path class="st5" d="M42.4,219.3h0.2c0.3,0,0.8,1.7,1.5,5.1c0.5,1.1,1.4,2.1,2.7,2.9c0.2-0.1,0.5-0.2,0.8-0.2v0.4
					c0,0.3-0.1,0.4-0.4,0.4h-0.6c-2.2-1.5-3.3-3.1-3.3-4.7c-0.2,0-0.5,0.8-1,2.5c-0.8,0.9-1.6,1.4-2.5,1.4c-1.5-0.1-2.3-0.8-2.3-2.1
					c0-2.7,1-4.5,3.1-5.5h0.6c0.2,0,0.4,0.2,0.6,0.6v0.2h-0.2l-0.8-0.2c-1.8,0.8-2.7,2.6-2.7,5.3c0,0.6,0.6,1,1.9,1.2
					c1.7-0.4,2.5-1.9,2.5-4.7c0-0.5-0.1-1.2-0.4-2C42.4,219.6,42.4,219.4,42.4,219.3z"/>
				<path class="st5" d="M52.1,218.9c1.8,0.5,2.7,1.9,2.7,4.1v1.4h-0.6v-0.8c0-2.2-0.6-3.6-2-4.1h-0.4c-1.1,0-1.8,2-2.3,6H49v-0.2
					l-0.6-3.9h0.2c0.4,0.1,0.6,0.5,0.6,1.4h0.2C49.9,220.2,50.8,218.9,52.1,218.9z"/>
				<path class="st5" d="M58.9,219.3h0.6v5.8h-0.8l0.2-1.4V219.3z M59.7,213.4h0.4c0.3,0,0.4,0.2,0.4,0.4v0.4c0,0.2-0.2,0.4-0.6,0.6
					h-0.4c-0.3,0-0.4-0.1-0.4-0.4V214C59.1,213.8,59.3,213.6,59.7,213.4z"/>
				<path class="st5" d="M70.1,219.7h0.6c1.4,1,2.1,2.7,2.1,5.1c-0.1,0.7-0.2,1.3-0.2,1.6h-0.2c-0.3,0-0.4-0.1-0.4-0.4v-2.5
					c0-1.2-0.5-2.2-1.5-3.1h-0.2c-1.2,0-2.1,1.3-2.7,3.9h-0.2c-0.1,0-0.5-0.7-1-2.1l-0.8-0.6c-0.5,0-0.8,1.4-1,4.3v0.6h-0.4
					c-0.3,0-0.5-0.9-0.8-2.7v-1.4h0.6v1.4h0.2c0.2-1.8,0.5-2.7,1-2.7h0.6c0.3,0.1,0.8,0.6,1.5,1.4h0.2
					C67.6,221.2,68.4,220.3,70.1,219.7z"/>
				<path class="st5" d="M81.5,219.3h0.2c0.3,0,0.8,1.7,1.5,5.1c0.5,1.1,1.4,2.1,2.7,2.9c0.2-0.1,0.5-0.2,0.8-0.2v0.4
					c0,0.3-0.1,0.4-0.4,0.4h-0.6c-2.2-1.5-3.3-3.1-3.3-4.7c-0.2,0-0.5,0.8-1,2.5c-0.8,0.9-1.6,1.4-2.5,1.4c-1.5-0.1-2.3-0.8-2.3-2.1
					c0-2.7,1-4.5,3.1-5.5h0.6c0.2,0,0.4,0.2,0.6,0.6v0.2h-0.2l-0.8-0.2c-1.8,0.8-2.7,2.6-2.7,5.3c0,0.6,0.6,1,1.9,1.2
					c1.7-0.4,2.5-1.9,2.5-4.7c0-0.5-0.1-1.2-0.4-2C81.4,219.6,81.5,219.4,81.5,219.3z"/>
				<path class="st5" d="M88.2,216.7h0.4c0.3,0,0.4,0.2,0.4,0.4v1.6l0.2,2c2-0.5,3.1-0.8,3.3-0.8c0.3,0,0.4,0.2,0.4,0.4v0.4h-0.2
					l-0.4-0.2c-2.1,0.6-3.1,0.9-3.1,1.2v4.3c0,0.3-0.1,0.4-0.4,0.4h-0.2v-4.7l-1.9,0.2h-0.4v-0.6h0.2l1.9-0.2v-0.4
					C88.4,219.8,88.3,218.5,88.2,216.7z"/>
				<path class="st5" d="M95.2,219.3h0.6v5.8H95l0.2-1.4V219.3z M95.9,213.4h0.4c0.3,0,0.4,0.2,0.4,0.4v0.4c0,0.2-0.2,0.4-0.6,0.6
					h-0.4c-0.3,0-0.4-0.1-0.4-0.4V214C95.4,213.8,95.5,213.6,95.9,213.4z"/>
				<path class="st5" d="M103.1,218.5h1c1.2,0,2.2,0.9,2.9,2.7v0.6c-0.6,3-2,4.5-4.1,4.5c-1.5,0-2.6-1.1-3.3-3.3
					C100.6,220,101.7,218.5,103.1,218.5z M102.7,219.1c-1.4,1.4-2.3,2.7-2.5,3.9c0.8,1.8,1.7,2.7,2.9,2.7c2.2-0.5,3.3-2.1,3.3-4.7
					c-0.8-1.3-1.6-1.9-2.3-1.9c-0.4,0.3-0.8,0.4-1,0.4C103.1,219.2,103,219.1,102.7,219.1z"/>
				<path class="st5" d="M114.1,218.9c1.8,0.5,2.7,1.9,2.7,4.1v1.4h-0.6v-0.8c0-2.2-0.6-3.6-2-4.1h-0.4c-1.1,0-1.8,2-2.3,6H111v-0.2
					l-0.6-3.9h0.2c0.4,0.1,0.6,0.5,0.6,1.4h0.2C111.8,220.2,112.7,218.9,114.1,218.9z"/>
				<path class="st5" d="M134,218.9c0.4,0,0.9,1.2,1.4,3.5c-0.6,2.4-1.6,3.5-3.1,3.5c-0.3,0-0.9-0.4-1.7-1.2c0,0.8-0.6,1.6-1.9,2.4
					c-1.2,0-1.7-1.6-1.7-4.7v-1.9h0.8l-0.2,1v0.6c0.1,2.8,0.5,4.3,1,4.3h0.4c0.4,0,0.9-1,1.5-2.9h0.4c0,0.9,0.6,1.6,1.7,1.9
					c1.5-0.8,2.3-1.8,2.3-2.9c0-0.8-0.4-1.8-1.2-3.1C133.6,219,133.8,218.9,134,218.9z"/>
				<path class="st5" d="M142.1,218.5h1c1.2,0,2.2,0.9,2.9,2.7v0.6c-0.6,3-2,4.5-4.1,4.5c-1.5,0-2.6-1.1-3.3-3.3
					C139.6,220,140.8,218.5,142.1,218.5z M141.8,219.1c-1.4,1.4-2.3,2.7-2.5,3.9c0.8,1.8,1.7,2.7,2.9,2.7c2.2-0.5,3.3-2.1,3.3-4.7
					c-0.8-1.3-1.6-1.9-2.3-1.9c-0.4,0.3-0.8,0.4-1,0.4C142.1,219.2,142,219.1,141.8,219.1z"/>
				<path class="st5" d="M152.6,217.7h0.4v0.6c-1.3,0-2.1,0.4-2.5,1.2c0.1,2.4,0.2,3.9,0.2,4.5l-0.2,1h-0.8v-0.6l0.4-0.6
					c-0.1-2.4-0.2-3.9-0.2-4.5C150.3,218.2,151.3,217.7,152.6,217.7z"/>
				<path class="st5" d="M155.1,211.8h0.4c0.3,0,0.5,0.6,0.8,1.7c-0.1,0.9-0.2,1.4-0.4,1.4c0.1,0.3,0.2,0.5,0.2,0.6
					c0.1,5.7,0.2,8.7,0.2,9.2l-0.4,0.2h-0.2v-0.2c-0.1-3.9-0.2-6.2-0.2-6.8c-0.3,0-0.5-0.3-0.6-1l0.4-1.9c-0.1-1.1-0.2-2.1-0.2-2.9
					L155.1,211.8L155.1,211.8z M159.7,216.5c0.3,0,0.4,0.2,0.4,0.4c-1.8,1.7-2.8,2.7-2.9,3.1c1.9,0,2.9,0.5,2.9,1.4
					c0.4,0.9,0.6,1.7,0.6,2.5h-0.6c-0.3-2.2-0.9-3.3-1.5-3.3c-1.1,0.1-1.8,0.2-2.1,0.2V220C156.6,219.5,157.7,218.3,159.7,216.5z"/>
				<path class="st5" d="M166.8,216.9h0.4c0.3,0,0.4,0.2,0.4,0.4v0.2h-0.6c-1.1,0-2,0.5-2.7,1.6v0.6c3.2,0.3,4.9,1.2,4.9,2.7
					c0.1,0,0.2,0.3,0.2,0.8c0,1.5-1.3,2.4-3.9,2.7c-1.7-0.2-2.5-0.5-2.5-0.8v-0.4h0.2c1.4,0.4,2.2,0.6,2.5,0.6
					c1.6,0,2.6-0.8,3.1-2.4c0-1.6-1.6-2.5-4.9-2.7l-0.4-0.6C163.5,218.2,164.6,217.3,166.8,216.9z"/>
				<path class="st5" d="M173,212.6h0.2v0.2c0.4,3.1,0.6,5.3,0.6,6.5v4.9h0.2c0.6-2.7,1.7-4.1,3.5-4.1h1.2c1.2,0,1.9,1.2,2.1,3.5
					c0.1,0.7,0.2,1.3,0.2,1.9v1.2c0,0.3-0.1,0.4-0.4,0.4h-0.4l0.2-1v-0.5c-0.3-2.9-0.7-4.5-1.2-4.7h-2.7c-0.6,0-1.5,1.7-2.7,5.3
					h-0.6v-0.2c0-1.4-0.1-2.6-0.2-3.5c0.1-1.4,0.2-2.5,0.2-3.3l-0.6-6.3L173,212.6z"/>
				<path class="st5" d="M187.5,218.5h1c1.2,0,2.2,0.9,2.9,2.7v0.6c-0.6,3-2,4.5-4.1,4.5c-1.5,0-2.6-1.1-3.3-3.3
					C184.9,220,186.1,218.5,187.5,218.5z M187,219.1c-1.4,1.4-2.3,2.7-2.5,3.9c0.8,1.8,1.7,2.7,2.9,2.7c2.2-0.5,3.3-2.1,3.3-4.7
					c-0.8-1.3-1.6-1.9-2.3-1.9c-0.4,0.3-0.8,0.4-1,0.4C187.5,219.2,187.3,219.1,187,219.1z"/>
				<path class="st5" d="M195.7,217.3c1.3,0,2.3,1.5,2.9,4.5c0,0.6-0.6,1.4-1.9,2.1c0.6,2.2,1.1,4.2,1.4,6.1h-0.4
					c-0.2,0-0.8-1.9-2-5.7h-0.2c0-0.2,0.1-0.3,0.2-0.6c-0.3-1.5-0.6-2.4-1-2.7C194.8,218.6,195.2,217.3,195.7,217.3z M195.9,217.9
					c-0.3,0.4-0.4,0.8-0.4,1.2v0.2c0,0.3,0.3,1.7,1,4.1c1-0.5,1.5-1.3,1.5-2.2C197.5,219.6,196.8,218.5,195.9,217.9z"/>
			</g>
		</g>
	</g>
	<g id="Arc">
		<g>
			<path class="st6" d="M202.9,62.9C202,60.7,140.6-39.6,50.7,21.8c-19.9,14.6-29.3,17.3-25.2,53c1.8,15.9,5.8,38.3,12,49.5
				c3.2,5.7,7,11.2,11.5,16.4c5.6-1.5,10.8-2,11.1-2c8.4-0.8,10.7-1.4,14.8-3.2c3.8-1.7,21.3-5.5,21.3-5.5
				c-24-5.7-44.6-47.6-34.3-75.6c4.8-13,13.1-24.9,23.4-32.4c0,0,0,0,0.2-0.1c0,0-0.1,0.1-0.2,0.1c0.1,0,28.3-18.2,72.6,6.8
				c21.9,12.4,52.3,51.6,27.3,81.6c-10.8,12.9-26,16-43.8,22.3c3.6,4.1,15,0.8,21.2,4.6c7.2,4.4,22.7,6.8,31.2,9.4
				C207.4,127,214.7,90.5,202.9,62.9z M49.2,42L38.2,59l-5.4-16L49.2,42z M35.6,84.3l4.3-18.6l16.3,14.8L35.6,84.3z M56.6,87
				l0.5,4.5L40.3,97l-2.4-6L56.6,87z M55.6,132.8L41,112l26.6,1.6L55.6,132.8z M60.4,98.9l2,5.2l-21,3l-1.7-4.9L60.4,98.9z M56,38.2
				c0.2-0.7-14.3-1.9-16.6-2.2c-1.7-0.2,3.4-4.6,3.4-4.6l17.4,3.6L56,38.2z M63.7,31.9L48.8,27l6.3-3.1l11.2,6.5L63.7,31.9z
				 M70.2,29.2l-9-8.1l16.9-4.3L70.2,29.2z M81.6,15.8L87.7,9l7.8,5.8L81.6,15.8z M98.5,14.2l-5-6.2L97.6,6l5.1,7.4L98.5,14.2z
				 M108.3,11.7l-3.6-6.6l4.3-0.7l3.6,7.7L108.3,11.7z M205.9,82.1h-8.7l-0.8-4.4l8.7-0.5L205.9,82.1z M204.1,72.6l-8.5,1.6l0.9-8.6
				L204.1,72.6z M116.6,12.4l-2.2-6.9l12.3,6.2L116.6,12.4z M137.9,16.4l-7.9-4.7l9.4-0.7L137.9,16.4z M140.4,18.6l3.6-6.2l2.5,1.4
				l-3.6,4L140.4,18.6z M146.6,19.7l4-3.6l2.9,1.8l-4.7,2.5L146.6,19.7z M151.7,22.6l4.7-3.3l4.7,5.1L151.7,22.6z M162.8,26.2
				l6.5,1.8l-3.2,2.5L162.8,26.2z M168.3,33.2l4-2.9l1.8,2.2l-3.2,2.2L168.3,33.2z M172.6,36.5c0,0,0.3-0.2,0.8-0.4
				c1.3-0.6,3.9-1.8,3.9-1.8l1.1,2.2l-4,1.8L172.6,36.5z M180.9,38.7l2.9,4.4l-7.2-2.2L180.9,38.7z M183.8,45.2l5.4,2.5l-4.7,2.5
				L183.8,45.2z M186.7,52.5l5.4-2.2l1.4,1.9l-5.7,1.9L186.7,52.5z M188.6,55.8l6.1-2.2l0.6,1.9l-5,1.8L188.6,55.8z M190.7,59.6
				l5.8-2l-0.4,5.8L190.7,59.6z M167.5,136.1c0,0,6.4-7.8,7.5-7.3c1.1,0.5,16.7,10.3,16.7,10.3L167.5,136.1z M194.7,136.5
				l-19.9-11.4l6.1-2.3l16.6,8.5L194.7,136.5z M198.4,126.6l-14.4-6.5l2.7-3.8l13.8,5.7L198.4,126.6z M189.2,112.7l8.7-6.8l4.9,12
				L189.2,112.7z M198.9,102.9l-2.7-9.6l9.1,4.6L198.9,102.9z M198,89.1l-1-4l9.2,1.9l-0.3,5.2L198,89.1z"/>
		</g>
	</g>
	<path id="Boabab" class="st5" d="M144.7,39.6c0,5.9-7.3,5.3-12.9,6.4c-1.4,0.3-6.5,1.9-7.2,2.1c-0.2,0.7-0.2,4.1-0.4,4.8
		c-0.1,0.5,7.1-7.3,7-6.8c-0.1,0.6-6.3,9.6-6.1,12.1c0.6,6.5,1.8,9,12.8,18.7c9.3-2,14.8-13.9,15.5-18c-1.1,0.2-9.5-1.7-10-2.3
		c1.4-1.8,3-0.4,3-1.4c0-1.1,1.6-2.5,2.7-3c1.1-0.5,5.2-0.7,5.2-0.8c0-0.2-2.2-0.9-5.1-0.8c1.1-2,4.4-2.4,11.1-3
		c2.3-0.2,4.1,5.7,6.1,5.7s2.7,5,1.4,5.4c-1.2,0.8-9.5,0.5-12.7,0.5c-0.7,2.5-1.5,6.6-3.2,10c-1.7,3.6-3,8.2-3,11.8
		c0,5.1,0.3,5,1.2,8.7c2.1,0.8,6.2,3.5,10.5,2.4c2.2-0.6,3.4-2.4,5.8-4.2c-2.1,0.3-10.6-2.9-6.5-7.7c2.1-2.5,8.7-0.5,10-2.5
		c2.1-3.2,10.2,3.1,12.4,6c0.5,0.6,0.2,0.2-2.2,0.2c-2.2,0-3.6,0.3-3.6,0.5c0.9,0.1,2.5,0.2,4,0.3c3.1,0.5,3.7,0.5,3.4,1.8
		c-1.8,4-3.3,3.8-5.2,3.4c-2-0.4-6.1-0.4-9.9-0.2c-2.4,0.9-4.2,4.4-6.1,5.9c-0.3,0.2-14.2,6.3-14,6c-0.5,0.9-2.3,14.5-4.1,19.3
		c-3.4,8.9-7.6,9.9-6.6,11.1c3.5,4.8,8.7,3.7,16.6,5.1c4.4,0.8,7,2.6,10.6,4c2.6,0.7,5.2,1.3,7.9,2c0,0.2-0.1,0.4-0.1,0.5
		c-3.7,1.9-11.9-1.5-15.8-2.2c-0.7,0-9,0.2-12.5,0.3c-3.1,0.5-7.4,1-10.7,0.4c-2.6-0.6-10.4-3.8-12.9-1.9c-2.1,1.5-6.2,4.1-3.2,5.4
		c1.7,0.7,3.4,4.7,3.1,5.5c0.3-0.5-0.2,1.1-1.9,0.1c-1.1-0.6-8.1-5.6-8.7-6.8c-0.8-1.8-0.2-6-2.2-6.6c0.5,0.1-13.4,2-10.8,1.6
		c-5.6,0.9-9.6-2.1-14.7-1.2c-2.3,0.4-8.6,2.7-10.6,1.8c0.1-0.6,0.2-0.6,0.5-0.9c3.6-1.5,6.8-3.6,11.3-4.6c3.2-0.6,7.3,0.2,10.3-0.6
		c4.4-1.3,5.6-4.6,11.5-4.6c-1.8-7.1-4-14.5-2.4-22.4c1.2-8.4,2.5-10.7,3-15.6c-2.1-3.3-5.4-9.3-9.7-12.6c-0.1,0-0.6,0.5-0.7,0.5
		c-0.6,0.8-2,1.5-2.3,2.2c-0.7,1.5,0.2,4.3-1.2,5.2c-0.8,0-2.8-1.1-3.4-1.4c-0.4-1.3,0.2-1.3,1.7-1.4c0-0.9,0-2.3,0.7-3.6
		c-0.3-0.3-0.5-0.6-0.8-0.9c-0.4-0.6,0.3-1.9,0.5-2.7c-0.1-0.1-0.1-0.1-0.2-0.2c-0.5,0.7-1.1,1.4-1.6,2.1c-0.4,0.1-0.6,0-1.1-0.1
		c-0.6,0.9-1.1,1.7-1.2,5.8c-0.2,1.1-3.8-0.7-3.9-1.4c-0.1-0.9,0.5-1.1,1.8-1.3c0-1.9,0-2.9,0.6-4.2c-0.2-0.7-0.3-1.6-0.5-2.3
		c0.2-1.2,0.9-1.8,1.5-2.8c-0.3-0.8-3.2-2.5-3.7-2.7c-1.5,0.9-0.8,2.9-1.8,3.1c-0.4-0.3-1.3-0.5-1.9-0.7c-1.4,1.4-0.4,5.3-0.6,5.7
		c-0.3,0.4-4.6,1.2-4.5-0.2c0.2-0.5,0.8-0.9,1.7-1.3c0.1-0.5-0.3-2.3,0.4-4.6c0.2-0.5-0.6-0.4-0.5-0.8c0.2-1.2,1-2.7,1-2.7
		c-0.3-0.2-0.4-0.2-0.7-0.3c-0.5-0.1-1.8,1.5-2.5,1.9c-0.5,0.3-0.9,0-0.9,0c-2.1,1.7-1.1,5.9-1.5,6c-3,0.9-4.7-0.5-4.4-1.1
		c0.3-0.2,0.8-1,2-0.9c0.2-1.7,0.1-3.8,1.2-5.5c0.3-0.4-1.1-0.9-0.9-1.4c0.8-1.8,1.5-3.1,3.5-4.1c-5-3.9-4.2-5.4-9.1-9.3
		C60.8,55,51.2,56.8,49.6,55c-2.1-2.5-0.3-8.2,3-7.4c3.5,0.8,11.1,0,11.1,0s-12.9,0.4-9.1-3.9c1.6-1.8,2.6-2.8,4.4-3
		c3.5-0.3,4.3,0.6,5,0.8c0.8,0.2,1.5,0.1,1.8-0.1c0.7-0.3,2.9-0.7,4.3,2.8c0.5,1.4,2,5.3,0.6,7c-3.1,1.1-4.8,1.1-4.3,1.7
		c2.6,3.7,5.9,5.3,7.8,6.6c1.2-1.9,5.4-5.3,8.1-7.2c-3.2-1.4-3.7-3.6-4.3-5.8c-1.2-4,1.2-6,2.3-8.7c0.2,0,0.3-1.6,0.5-1.6
		c0.5,0.8,1.1,1.5,2.3,1.6c0.4-0.4,0.7-0.8,1.1-1.3c0.7,0.5,0.2,0.9,0.9,1.4c0.9,0.3,2.6,0.1,3.2,0.5c3.1,2.2,3.8,7,2.3,11.1
		c-0.5,1.5-1.8,2.6-2.3,4c-0.4,1.3,0.6,3.7,0.2,5.5c-0.5,2.2-1.2,4.7-1.6,7.1c0.9,0.6,1.2,0.9,2.3,1.3c2.7-1.7,6.2-5.8,8.4-7.6
		c-1.5-0.3-4.4-3.7-3.8-7.6c0.4-2.5,0.6-3.1,1.9-4.9c0.8-1.1,4.3-1.9,6.3-1.8c5,0.2,6.9,8.2,5.2,13.4c-0.7,2.2-1.5,6.6,1.4,6.9
		c0.3-0.2,1.7-1,1.7-1.2c0.1-0.2-0.3-0.6-0.5-0.7c-0.1-0.1-1.5,0.9-1.5,0.9s-0.4-0.7-0.4-0.8c0-0.1,0.5-1.5,0.7-1.6
		c0.1-0.1,1.9-0.7,2.2-0.5c0.2,0.2,0.8,1.5,1,2.5c0.3,1.5-0.6,4.3-3.2,4.9c-1.6,0-3.8-0.6-4.7-1.7c-0.6-0.7-0.5-0.6-1.4-2.2
		c-0.5,2.7-2.4,4.3-2.5,7.2c6.5,3.3,9.7,3.6,12.5,3.7c9.2-3,4.8-16.9,11.2-28.4c-3.1,1.3-4.2-3.1-7.3-2.9c-4.2,0.2-6.5-5.8-3.2-6.8
		c3.3-1.4,12.1-1.8,12.1-1.8s-5-1.2-9.7-0.1c-2.4,0.5,0.1-1.7,0.5-2c3.7-2.4,5.8-1.2,12.2-0.9c4.4-0.8,11.7-1.4,14,2.4
		c1.1,1.9,2.7,2.7-3.8,2.7C137.9,38.7,143.3,40.1,144.7,39.6z"/>
</g>
</svg>
